<svg xmlns="http://www.w3.org/2000/svg" width="23" height="23" viewBox="0 0 23 23">
  <g id="Explore" transform="translate(-3.25 -3.25)">
    <path id="Trazado_468" data-name="Trazado 468" d="M3.25,14.75a11.5,11.5,0,1,1,11.5,11.5A11.5,11.5,0,0,1,3.25,14.75Zm9.988-3.537a6.572,6.572,0,0,0-2.307,4L10.068,20.4A1.314,1.314,0,0,0,12.2,21.629l4.062-3.342a6.571,6.571,0,0,0,2.307-4L19.432,9.1A1.314,1.314,0,0,0,17.3,7.871Z" fill="#4c1d15" fill-rule="evenodd"/>
    <path id="Trazado_469" data-name="Trazado 469" d="M10.5,12A1.5,1.5,0,1,1,12,13.5,1.5,1.5,0,0,1,10.5,12Z" transform="translate(2.75 2.75)" fill="#4c1d15"/>
  </g>
</svg>
