<svg xmlns="http://www.w3.org/2000/svg" width="24.726" height="22.569" viewBox="0 0 24.726 22.569">
  <g id="Grupo_467" data-name="Grupo 467" transform="translate(-1616.137 -627.174)">
    <path id="Bag" d="M8.714,7.648V6.111a2.3,2.3,0,0,1,1.959-2.275l1.6-.241a18.073,18.073,0,0,1,5.362,0l1.6.241A2.3,2.3,0,0,1,21.2,6.111V7.648l2.253.182a3.759,3.759,0,0,1,3.409,3.146,35.656,35.656,0,0,1,0,11.4,3.759,3.759,0,0,1-3.409,3.146l-2.46.2a75.02,75.02,0,0,1-12.071,0l-2.46-.2a3.76,3.76,0,0,1-3.409-3.146,35.657,35.657,0,0,1,0-11.4A3.759,3.759,0,0,1,6.461,7.83Zm3.855-2.1a16.1,16.1,0,0,1,4.777,0l1.6.24a.329.329,0,0,1,.28.325v1.4a75.019,75.019,0,0,0-8.543,0v-1.4a.329.329,0,0,1,.28-.325Z" transform="translate(1613.543 623.779)" fill="#4c1d15" fill-rule="evenodd"/>
    <circle id="Elipse_103" data-name="Elipse 103" cx="2" cy="2" r="2" transform="translate(1622.73 636)" fill="#4c1d15"/>
    <rect id="Rect치ngulo_696" data-name="Rect치ngulo 696" width="6.572" height="3.943" transform="translate(1628.559 641.568) rotate(-30)" fill="#4c1d15"/>
    <circle id="Elipse_104" data-name="Elipse 104" cx="2" cy="2" r="2" transform="translate(1622.73 636)" fill="#fff"/>
    <rect id="Rect치ngulo_697" data-name="Rect치ngulo 697" width="6.572" height="3.943" transform="translate(1628.559 641.568) rotate(-30)" fill="#fff"/>
  </g>
</svg>
