<svg xmlns="http://www.w3.org/2000/svg" xmlns:xlink="http://www.w3.org/1999/xlink" width="103.195" height="135.97" viewBox="0 0 103.195 135.97">
  <defs>
    <clipPath id="clip-path">
      <rect id="Rectángulo_1" data-name="Rectángulo 1" width="103.195" height="135.97" fill="#f4ebdc"/>
    </clipPath>
  </defs>
  <g id="Grupo_2" data-name="Grupo 2" transform="translate(0 0)">
    <g id="Grupo_1" data-name="Grupo 1" transform="translate(0 0)" clip-path="url(#clip-path)">
      <path id="Trazado_1" data-name="Trazado 1" d="M103.2,21.442c0-.352-.01-.707-.028-1.059-.009-.169-.023-.337-.035-.5s-.024-.359-.042-.539c-.019-.213-.049-.422-.077-.633-.016-.133-.03-.267-.051-.4-.031-.227-.073-.452-.113-.679-.021-.115-.04-.232-.061-.349-.047-.229-.1-.454-.15-.681-.026-.113-.051-.227-.079-.34-.056-.22-.115-.436-.176-.653-.033-.122-.068-.244-.1-.365-.063-.2-.129-.4-.2-.6-.044-.136-.089-.272-.138-.408-.063-.178-.133-.356-.2-.532-.059-.155-.117-.309-.183-.462s-.131-.307-.2-.459c-.075-.173-.152-.346-.232-.517-.063-.129-.127-.26-.192-.389-.094-.187-.187-.373-.286-.558-.061-.112-.124-.223-.185-.333-.112-.2-.22-.391-.337-.583-.061-.1-.126-.2-.187-.3-.124-.2-.246-.391-.375-.583-.066-.1-.138-.2-.206-.3-.131-.187-.26-.372-.394-.555-.084-.112-.171-.218-.253-.328-.129-.164-.255-.33-.389-.492-.115-.143-.239-.279-.358-.419-.108-.124-.213-.251-.326-.375q-.712-.785-1.5-1.5c-.124-.112-.251-.218-.377-.326s-.274-.243-.415-.358c-.164-.134-.332-.26-.5-.389-.11-.084-.215-.169-.326-.251-.181-.138-.37-.267-.555-.4-.1-.068-.2-.138-.295-.206-.192-.129-.389-.251-.585-.373-.1-.063-.2-.127-.3-.188-.192-.115-.387-.225-.583-.335-.11-.061-.22-.126-.332-.187-.187-.1-.373-.192-.562-.286-.127-.065-.257-.129-.387-.19-.171-.082-.344-.159-.517-.234-.152-.068-.3-.136-.459-.2s-.307-.122-.462-.181c-.176-.068-.354-.138-.532-.2-.134-.049-.272-.092-.408-.138-.2-.066-.4-.134-.6-.194-.124-.037-.244-.07-.366-.1-.216-.061-.433-.12-.651-.174L86.6.557c-.227-.052-.452-.1-.681-.148C85.8.386,85.686.366,85.569.346c-.223-.04-.45-.08-.677-.113C84.757.211,84.619.2,84.485.18,84.276.154,84.068.126,83.859.1c-.183-.017-.363-.028-.544-.04-.166-.012-.332-.03-.5-.037C82.461.01,82.107,0,81.754,0s-.707.01-1.061.028c-.168.007-.333.024-.5.037S79.83.087,79.65.1c-.211.021-.419.049-.628.075-.136.017-.27.031-.4.052-.229.033-.454.073-.679.113-.115.021-.23.04-.347.063-.23.045-.455.1-.681.148-.115.026-.229.052-.342.08-.22.054-.436.113-.653.174-.12.035-.243.068-.365.1-.2.059-.4.127-.6.194-.136.045-.272.089-.408.138-.178.063-.356.133-.534.2-.152.059-.307.119-.461.181s-.305.133-.459.2c-.173.077-.346.154-.517.236-.131.061-.258.126-.386.19-.19.094-.377.188-.562.288-.112.059-.222.122-.332.185-.2.108-.393.22-.585.335-.1.061-.2.126-.3.188-.2.122-.391.244-.585.373-.1.066-.194.136-.293.2-.185.131-.373.26-.557.4-.11.08-.215.166-.323.248-.168.131-.333.258-.5.393-.14.115-.274.236-.41.352s-.257.218-.382.332c-.262.237-.518.48-.77.731L51.6,21.276,37.035,6.716A21.371,21.371,0,0,0,23.508.1C23.457.1,23.4.094,23.352.089c-.288-.024-.574-.049-.864-.061C22.257.016,22.026.014,21.8.009c-.113,0-.223-.009-.337-.009l-.01,0c-.361,0-.722.009-1.082.028-.045,0-.092.005-.138.009-.311.017-.619.04-.93.07-.079.009-.155.021-.234.03-.276.03-.55.063-.827.1-.08.012-.161.028-.243.042-.27.042-.541.089-.81.143-.07.014-.138.031-.208.045-.281.061-.564.124-.845.2L16.008.7c-.309.082-.614.168-.92.262L15.071.97A21.429,21.429,0,0,0,.017,22.29V64A21.442,21.442,0,0,0,41.84,70.662a21.725,21.725,0,0,0,19.53-.009A21.443,21.443,0,0,0,103.2,64Z" transform="translate(0 0)" fill="#f4ebdc"/>
      <path id="Trazado_2" data-name="Trazado 2" d="M25.169,79.588a5.063,5.063,0,0,1-.262-1.328c-.035-.487-.054-1.092-.054-1.815,0-.511.007-.911.019-1.2s.017-.548.017-.77.005-.441.017-.663.016-.527.016-.925q0-1.22-.051-2.459a8.613,8.613,0,0,0-.366-2.234,3.728,3.728,0,0,0-.977-1.623,2.689,2.689,0,0,0-1.919-.628,3.671,3.671,0,0,0-3.315,2.024,14.939,14.939,0,0,0-1.431,6.456q-.071,1.4-.07,2.548a12.042,12.042,0,0,1-.14,1.972,2.731,2.731,0,0,1-.506,1.272,1.459,1.459,0,0,1-1.2.454,1.408,1.408,0,0,1-1.117-.4,2.565,2.565,0,0,1-.506-1.206,11.094,11.094,0,0,1-.176-1.953q-.016-1.152-.12-2.687-.1-1.678-.332-3.212a10.857,10.857,0,0,0-.733-2.7A4.832,4.832,0,0,0,10.6,66.64a3.331,3.331,0,0,0-2.181-.7,2.812,2.812,0,0,0-1.935.609,3.538,3.538,0,0,0-.995,1.605,8.65,8.65,0,0,0-.366,2.234q-.052,1.241-.054,2.5c0,.419.007.728.019.925s.017.379.017.543.005.372.017.626.017.653.017,1.188q0,1.149-.052,1.989a5.332,5.332,0,0,1-.262,1.431,1.275,1.275,0,0,1-.663.853,2.173,2.173,0,0,1-.768.159A1.338,1.338,0,0,1,2,79.832,6.561,6.561,0,0,1,1.647,77.6q0-.8-.017-1.8t-.017-2.427V72.152c0-.347.005-.684.017-1.012s.021-.656.035-.993.028-.728.052-1.169a8.28,8.28,0,0,1,.768-3.4,5.478,5.478,0,0,1,1.569-1.939,4.759,4.759,0,0,1,1.956-.855,10.754,10.754,0,0,1,1.919-.192,7.969,7.969,0,0,1,3.174.56,5.846,5.846,0,0,1,3.335,3.525,11.088,11.088,0,0,1,.541,2.336,9.5,9.5,0,0,1,.576-2.284,5.994,5.994,0,0,1,1.29-2.024,6.407,6.407,0,0,1,2.218-1.448,8.824,8.824,0,0,1,3.35-.56,10.275,10.275,0,0,1,1.937.192,4.188,4.188,0,0,1,1.832.857,5.125,5.125,0,0,1,1.413,1.9,9.142,9.142,0,0,1,.681,3.333q.034.662.052,1.169c.01.337.023.668.035.993s.017.665.017,1.012v1.221q0,1.432-.017,2.427t-.019,1.8c0,.443-.016.852-.051,1.223a2.94,2.94,0,0,1-.227.942,1.458,1.458,0,0,1-.506.609,1.694,1.694,0,0,1-.961.229,1.528,1.528,0,0,1-.906-.229,1.647,1.647,0,0,1-.523-.783" transform="translate(1.201 46.626)" fill="#f4ebdc"/>
      <path id="Trazado_3" data-name="Trazado 3" d="M34.164,79.666a.712.712,0,0,1-.8.813H31.878c-.4,0-.639-.079-.721-.237a1.139,1.139,0,0,1-.138-.431c-.01-.126-.031-.283-.061-.466q-.092-.751-.262-1.626a5.84,5.84,0,0,1-3.757,2.9,7.6,7.6,0,0,1-1.994.246,6.928,6.928,0,0,1-2.178-.359,5.86,5.86,0,0,1-1.932-1.066,5.2,5.2,0,0,1-1.9-4.188,5.022,5.022,0,0,1,2.085-4.34A7.493,7.493,0,0,1,25.437,69.7a6.841,6.841,0,0,1,4.57,1.579q.045-.521.045-1.3a4.234,4.234,0,0,0-.307-1.565,3.435,3.435,0,0,0-.874-1.3,4.754,4.754,0,0,0-3.251-1.028,8.078,8.078,0,0,0-3.8,1.028,1.391,1.391,0,0,1-.644.2q-.414,0-.8-.811a3.2,3.2,0,0,1-.414-1.2q0-.675,1.012-1.3a9.743,9.743,0,0,1,5.169-1.2,7.362,7.362,0,0,1,4.877,1.611,6.76,6.76,0,0,1,2.284,5.46,19.542,19.542,0,0,1-.506,3.942,20.849,20.849,0,0,1,1.366,5.858m-10.276-6.51a3.333,3.333,0,0,0-.9.928,2.117,2.117,0,0,0-.267,1.082,2.591,2.591,0,0,0,.223,1.1,2.191,2.191,0,0,0,.619.8,3,3,0,0,0,1.9.66,5.117,5.117,0,0,0,1.726-.246,4.194,4.194,0,0,0,1.166-.628,2.283,2.283,0,0,0,1.057-1.748,2.229,2.229,0,0,0-1.272-1.81,4.909,4.909,0,0,0-2.5-.614,2.884,2.884,0,0,0-1.748.468" transform="translate(14.105 46.78)" fill="#f4ebdc"/>
      <path id="Trazado_4" data-name="Trazado 4" d="M29.973,64.284q0-1.1.967-1.1h.827a1.227,1.227,0,0,1,1.2.736,9.971,9.971,0,0,1,.736,2.959c0,.021.007.031.023.031a2.466,2.466,0,0,0,.1-.522,5.254,5.254,0,0,1,1.349-2.562,3.751,3.751,0,0,1,2.67-1.028,3.89,3.89,0,0,1,2.453.583.739.739,0,0,1,.26.722l-.244,1.932c-.061.522-.328.782-.8.782a3.145,3.145,0,0,1-.829-.138,6.385,6.385,0,0,0-1.5-.246,1.906,1.906,0,0,0-1.166.485,4.54,4.54,0,0,0-1.059,1.2,6.123,6.123,0,0,0-.9,3.205v8.144a1.078,1.078,0,0,1-.246.721.864.864,0,0,1-.7.291h-1.78a.929.929,0,0,1-.743-.291,1.065,1.065,0,0,1-.253-.721V68.9a22.485,22.485,0,0,0-.176-3.567,8.1,8.1,0,0,1-.176-1.05" transform="translate(22.329 46.78)" fill="#f4ebdc"/>
      <path id="Trazado_5" data-name="Trazado 5" d="M42.4,80.037a6.859,6.859,0,0,1,3.059-.7,12.622,12.622,0,0,1,2.884.3,7.37,7.37,0,0,1,2.277.944,4.529,4.529,0,0,1,2.27,4.033,4.957,4.957,0,0,1-2.577,4.34,10.072,10.072,0,0,1-5.49,1.443,9.819,9.819,0,0,1-5.444-1.412,4.749,4.749,0,0,1-2.347-4.172q0-3.2,3.39-6.195a18.365,18.365,0,0,1,2.912-2.071,7.346,7.346,0,0,1-4.263-1.764,5.5,5.5,0,0,1-1.979-4.308,5.933,5.933,0,0,1,2.225-4.8,7.425,7.425,0,0,1,4.861-1.673,6.655,6.655,0,0,1,4.769,1.642,4.07,4.07,0,0,1,.859,1.15,12.582,12.582,0,0,0-.361-2.923,13.126,13.126,0,0,1-.359-1.8.8.8,0,0,1,.384-.736.992.992,0,0,1,.522-.138h1.319q1.272,0,1.272,3.544a12.059,12.059,0,0,1-1.134,5.23c.021.225.03.52.03.888a4.153,4.153,0,0,1-.244,1.29,6.207,6.207,0,0,1-.653,1.373,7.308,7.308,0,0,1-.934,1.173,11.864,11.864,0,0,1-1.122,1c-.394.307-.789.588-1.188.843q-3.358,2.133-4.017,2.663a6.387,6.387,0,0,0-.921.85m-1.441,2.837a2.107,2.107,0,0,0-.567,1.426,2.276,2.276,0,0,0,.384,1.335,3.122,3.122,0,0,0,1.012.92,6.059,6.059,0,0,0,3.036.691q2.884,0,4.019-1.427a1.9,1.9,0,0,0,.368-1.2,1.782,1.782,0,0,0-.452-1.227,3.016,3.016,0,0,0-1.129-.782,7.751,7.751,0,0,0-2.914-.461,6.879,6.879,0,0,0-3.757.721m.736-9.962a3.564,3.564,0,0,0,1.218.691,4.583,4.583,0,0,0,1.49.237,4.239,4.239,0,0,0,1.448-.237,3.438,3.438,0,0,0,1.166-.7,3.192,3.192,0,0,0,1.073-2.485,2.869,2.869,0,0,0-1.2-2.438,4.26,4.26,0,0,0-2.607-.782A3.464,3.464,0,0,0,40.9,69.025a3.016,3.016,0,0,0-.307,1.389,3.342,3.342,0,0,0,.291,1.419,3.2,3.2,0,0,0,.813,1.08" transform="translate(27.586 45.582)" fill="#f4ebdc"/>
      <path id="Trazado_6" data-name="Trazado 6" d="M47.613,71.769a9.694,9.694,0,0,1,.668-3.656,8.472,8.472,0,0,1,1.83-2.846A8.283,8.283,0,0,1,56.263,62.8,8.336,8.336,0,0,1,62.7,65.267,9.222,9.222,0,0,1,64.912,71.8a8.976,8.976,0,0,1-2.5,6.565,8.227,8.227,0,0,1-6.149,2.5A8.174,8.174,0,0,1,49.974,78.3a9.126,9.126,0,0,1-2.361-6.533m4.931-3.9a5.775,5.775,0,0,0-.836,1.932,9.284,9.284,0,0,0-.262,2.192,7.5,7.5,0,0,0,.3,2.134,5.58,5.58,0,0,0,.9,1.816,4.348,4.348,0,0,0,3.68,1.748,4.221,4.221,0,0,0,3.65-1.717,6.785,6.785,0,0,0,1.1-4.1q0-3.882-2.546-5.354a5.094,5.094,0,0,0-4.5-.023,4.317,4.317,0,0,0-1.487,1.366" transform="translate(35.47 46.78)" fill="#f4ebdc"/>
    </g>
  </g>
</svg>
