<svg xmlns="http://www.w3.org/2000/svg" width="12.699" height="17.167" viewBox="0 0 12.699 17.167">
  <g id="Sand-watch" transform="translate(-5.651 -3.417)">
    <path id="Trazado_419" data-name="Trazado 419" d="M11.47,8.53a.75.75,0,0,0,1.061,0l1-1A.75.75,0,0,0,13,6.25H11a.75.75,0,0,0-.53,1.28Z" fill="#4c1d15"/>
    <path id="Trazado_420" data-name="Trazado 420" d="M11.47,15.47a.75.75,0,0,1,1.061,0l1,1A.75.75,0,0,1,13,17.75H11a.75.75,0,0,1-.53-1.28Z" fill="#4c1d15"/>
    <path id="Trazado_421" data-name="Trazado 421" d="M13.149,12l.187-.161A21.075,21.075,0,0,0,18.18,5.781a1.428,1.428,0,0,0-1.136-2.093l-1.173-.1a44.446,44.446,0,0,0-7.742,0l-1.174.1A1.428,1.428,0,0,0,5.82,5.781a21.075,21.075,0,0,0,4.844,6.057l.187.161-.187.161A21.075,21.075,0,0,0,5.82,18.219a1.428,1.428,0,0,0,1.136,2.093l1.174.1a44.446,44.446,0,0,0,7.742,0l1.173-.1a1.428,1.428,0,0,0,1.136-2.093,21.075,21.075,0,0,0-4.844-6.057ZM12,11.006l0,0,.351-.3A19.576,19.576,0,0,0,16.8,5.173L15.741,5.08a42.947,42.947,0,0,0-7.481,0L7.2,5.173A19.574,19.574,0,0,0,11.643,10.7l.351.3,0,0H12Zm0,1.989,0,0H12l0,0-.351.3A19.573,19.573,0,0,0,7.2,18.827l1.064.093a42.947,42.947,0,0,0,7.481,0l1.064-.093A19.575,19.575,0,0,0,12.357,13.3Z" fill="#4c1d15" fill-rule="evenodd"/>
  </g>
</svg>
