<svg id="User" xmlns="http://www.w3.org/2000/svg" width="14.943" height="16.368" viewBox="0 0 14.943 16.368">
  <path id="Trazado_387" data-name="Trazado 387" d="M7.75,7.347a4.1,4.1,0,1,1,4.1,4.1A4.1,4.1,0,0,1,7.75,7.347Zm4.1-2.651A2.651,2.651,0,1,0,14.5,7.347,2.651,2.651,0,0,0,11.847,4.7Z" transform="translate(-4.376 -3.25)" fill="#4c1d15" fill-rule="evenodd"/>
  <path id="Trazado_388" data-name="Trazado 388" d="M7.865,14.7A2.169,2.169,0,0,0,5.7,16.865v1.146a.036.036,0,0,0,.03.035,37.205,37.205,0,0,0,11.991,0,.036.036,0,0,0,.03-.035V16.865A2.169,2.169,0,0,0,15.577,14.7h-.329a.244.244,0,0,0-.075.012l-.834.273a8.436,8.436,0,0,1-5.237,0l-.834-.273a.243.243,0,0,0-.075-.012ZM4.25,16.865A3.615,3.615,0,0,1,7.865,13.25h.329a1.689,1.689,0,0,1,.524.083l.834.273a6.99,6.99,0,0,0,4.339,0l.834-.273a1.689,1.689,0,0,1,.524-.083h.329a3.615,3.615,0,0,1,3.615,3.615v1.146a1.482,1.482,0,0,1-1.243,1.462,38.653,38.653,0,0,1-12.457,0A1.482,1.482,0,0,1,4.25,18.011Z" transform="translate(-4.25 -3.61)" fill="#4c1d15" fill-rule="evenodd"/>
</svg>
