<?xml version="1.0" encoding="utf-8"?>
<!-- Generator: Adobe Illustrator 25.0.0, SVG Export Plug-In . SVG Version: 6.00 Build 0)  -->
<svg version="1.1" id="Add" xmlns="http://www.w3.org/2000/svg" xmlns:xlink="http://www.w3.org/1999/xlink" x="0px" y="0px"
	 viewBox="0 0 17 17" style="enable-background:new 0 0 17 17;" xml:space="preserve">
<style type="text/css">
	.st0{fill-rule:evenodd;clip-rule:evenodd;}
</style>
<g>
	<path class="st0" d="M12.7,7.7H9.2V4.2c0-0.4-0.3-0.8-0.8-0.8c-0.4,0-0.8,0.3-0.8,0.8v3.5H4.2c-0.4,0-0.8,0.3-0.8,0.8
		c0,0.4,0.3,0.8,0.8,0.8h3.5v3.5c0,0.4,0.3,0.8,0.8,0.8c0.4,0,0.8-0.3,0.8-0.8V9.2h3.5c0.4,0,0.8-0.3,0.8-0.8
		C13.5,8.1,13.1,7.7,12.7,7.7z"/>
	<path class="st0" d="M16.7,3.7c-0.2-1.8-1.7-3.3-3.5-3.5c-3.1-0.3-6.3-0.3-9.4,0C2,0.5,0.5,1.9,0.3,3.7c-0.4,3.2-0.4,6.3,0,9.5
		c0.2,1.8,1.7,3.3,3.5,3.5c3.1,0.3,6.3,0.3,9.4,0c1.8-0.2,3.3-1.6,3.5-3.5C17,10.1,17,6.9,16.7,3.7z M15.2,13.1
		c-0.1,1.1-1,2-2.2,2.2c-3,0.3-6,0.3-9,0c-1.1-0.1-2.1-1-2.2-2.2c-0.4-3-0.4-6.1,0-9.2c0.1-1.1,1.1-2,2.2-2.2c3-0.3,6-0.3,9,0v0
		c1.1,0.1,2,1,2.2,2.2C15.5,7,15.5,10,15.2,13.1z"/>
</g>
</svg>
