<svg xmlns="http://www.w3.org/2000/svg" width="23.573" height="22.716" viewBox="0 0 23.573 22.716">
  <path id="Calendar" d="M8.249,3.25a.987.987,0,0,1,.987.987V6.43a63.023,63.023,0,0,1,11.181,0V4.237a.987.987,0,0,1,1.973,0V6.626a4.44,4.44,0,0,1,3.778,3.813l.114.859a38.14,38.14,0,0,1-.123,10.876A3.959,3.959,0,0,1,22.636,25.5l-1.569.155a63.594,63.594,0,0,1-12.481,0L7.016,25.5a3.959,3.959,0,0,1-3.523-3.331A38.14,38.14,0,0,1,3.37,11.3l.114-.859A4.44,4.44,0,0,1,7.263,6.626V4.237A.987.987,0,0,1,8.249,3.25Zm.586,5.2a61.052,61.052,0,0,1,11.983,0l1.191.117a2.467,2.467,0,0,1,2.2,2.131l.114.859q.06.45.108.9H5.218q.048-.451.108-.9L5.44,10.7a2.467,2.467,0,0,1,2.2-2.131ZM5.062,14.431a36.167,36.167,0,0,0,.381,7.439A1.986,1.986,0,0,0,7.21,23.541l1.569.155a61.61,61.61,0,0,0,12.093,0l1.569-.155a1.986,1.986,0,0,0,1.767-1.671,36.164,36.164,0,0,0,.381-7.439Z" transform="translate(-3.04 -3.25)" fill="#4c1d15" fill-rule="evenodd"/>
</svg>
