<?xml version="1.0" encoding="utf-8"?>
<!-- Generator: Adobe Illustrator 25.0.0, SVG Export Plug-In . SVG Version: 6.00 Build 0)  -->
<svg version="1.1" id="Capa_1" xmlns="http://www.w3.org/2000/svg" xmlns:xlink="http://www.w3.org/1999/xlink" x="0px" y="0px"
	 viewBox="0 0 24 17.5" style="enable-background:new 0 0 24 17.5;" xml:space="preserve">
<style type="text/css">
	.st0{fill:#4C1D15;}
</style>
<path class="st0" d="M22.6,7.4H4.7l5-5c0.5-0.5,0.5-1.4,0-2c-0.5-0.5-1.4-0.5-2,0L0.4,7.8c-0.5,0.5-0.5,1.4,0,2c0,0,0,0,0,0l7.4,7.4
	c0.5,0.5,1.4,0.6,2,0c0.5-0.5,0.6-1.4,0-2c0,0,0,0,0,0l-5-5h17.9c0.8,0,1.4-0.7,1.3-1.4C23.9,8,23.4,7.4,22.6,7.4z"/>
</svg>
