<?xml version="1.0" encoding="utf-8"?>
<!-- Generator: Adobe Illustrator 25.0.0, SVG Export Plug-In . SVG Version: 6.00 Build 0)  -->
<svg version="1.1" id="Capa_1" xmlns="http://www.w3.org/2000/svg" xmlns:xlink="http://www.w3.org/1999/xlink" x="0px" y="0px"
	 viewBox="0 0 14.2 18.7" style="enable-background:new 0 0 14.2 18.7;" xml:space="preserve">
<style type="text/css">
	.st0{fill-rule:evenodd;clip-rule:evenodd;fill:#4C1D15;}
</style>
<path class="st0" d="M13.5,2.5c-0.2-1.1-1.1-1.9-2.2-2.1c-2.8-0.5-5.6-0.5-8.3,0h0c-1.1,0.2-2,1-2.2,2.1c-0.9,4.6-1,9.3-0.1,13.9
	l0.2,1.2c0,0.3,0.2,0.5,0.3,0.7c0.5,0.5,1.3,0.6,1.9,0l3.9-3.7c0.1-0.1,0.2-0.1,0.3,0l3.9,3.7c0.2,0.2,0.4,0.3,0.7,0.3
	c0.7,0.1,1.4-0.4,1.5-1.1l0.2-1.2C14.4,11.8,14.4,7,13.5,2.5z M12.1,16.1L12,17l-3.7-3.5c-0.7-0.6-1.7-0.6-2.4,0L2.2,17l-0.2-0.9
	C1.3,11.7,1.3,7.2,2.2,2.8c0.1-0.5,0.5-0.9,1-0.9c2.6-0.4,5.3-0.4,7.8,0c0.5,0.1,0.9,0.5,1,0.9C12.9,7.2,12.9,11.7,12.1,16.1z"/>
</svg>
