<?xml version="1.0" encoding="utf-8"?>
<!-- Generator: Adobe Illustrator 25.0.0, SVG Export Plug-In . SVG Version: 6.00 Build 0)  -->
<svg version="1.1" id="Capa_1" xmlns="http://www.w3.org/2000/svg" xmlns:xlink="http://www.w3.org/1999/xlink" x="0px" y="0px"
	 viewBox="0 0 14.9 14.3" style="enable-background:new 0 0 14.9 14.3;" xml:space="preserve">
<style type="text/css">
	.st0{fill:#4C1D15;}
</style>
<g>
	<path class="st0" d="M14.1,4.5c-0.1-0.1-0.2-0.1-0.2,0L13,5.3c0,0-0.1,0.1,0,0.1c0.1,1.8,0,3.7-0.2,5.5c-0.1,1-0.9,1.7-1.8,1.8
		c-2.5,0.3-5.1,0.3-7.6,0c-1-0.1-1.7-0.9-1.8-1.8c-0.3-2.6-0.3-5.1,0-7.7c0.1-1,0.9-1.7,1.8-1.8c2.5-0.3,5.1-0.3,7.6,0
		c0.3,0,0.5,0.1,0.8,0.2c0.1,0,0.2,0,0.2,0L12.6,1c0,0,0,0,0,0c0-0.1,0-0.2,0-0.2c-0.4-0.3-1-0.5-1.5-0.5c-2.6-0.3-5.3-0.3-7.9,0
		c-1.5,0.2-2.8,1.4-3,2.9c-0.3,2.7-0.3,5.3,0,8c0.2,1.5,1.4,2.8,3,2.9c2.6,0.3,5.3,0.3,7.9,0c1.5-0.2,2.8-1.4,3-2.9
		c0.3-2.2,0.3-4.4,0.1-6.6C14.2,4.5,14.1,4.5,14.1,4.5z"/>
	<path class="st0" d="M14.7,1.2c-0.2-0.2-0.6-0.2-0.9,0L6.7,8.4L4.6,6.3C4.4,6,4,6,3.7,6.3c-0.2,0.2-0.2,0.6,0,0.9l2.5,2.5
		c0.2,0.2,0.6,0.2,0.9,0l7.6-7.6C15,1.9,15,1.5,14.7,1.2z"/>
</g>
</svg>
