<?xml version="1.0" encoding="utf-8"?>
<!-- Generator: Adobe Illustrator 25.0.0, SVG Export Plug-In . SVG Version: 6.00 Build 0)  -->
<svg version="1.1" id="Capa_1" xmlns="http://www.w3.org/2000/svg" xmlns:xlink="http://www.w3.org/1999/xlink" x="0px" y="0px"
	 viewBox="0 0 23.6 22.7" style="enable-background:new 0 0 23.6 22.7;" xml:space="preserve">
<style type="text/css">
	.st0{fill-rule:evenodd;clip-rule:evenodd;fill:#4C1D15;}
</style>
<path class="st0" d="M23.2,8l-0.1-0.9c-0.3-2-1.8-3.5-3.8-3.8V1c0-0.5-0.4-0.9-1-1c-0.5,0-1,0.4-1,1v2.2c-3.7-0.3-7.5-0.3-11.2,0V1
	c0-0.5-0.4-1-1-1c-0.5,0-1,0.4-1,1v2.4c-2,0.3-3.5,1.8-3.8,3.8L0.3,8c-0.5,3.6-0.4,7.3,0.1,10.9c0.3,1.8,1.7,3.2,3.5,3.3l1.6,0.2
	c4.2,0.4,8.3,0.4,12.5,0l1.6-0.2c1.8-0.2,3.2-1.5,3.5-3.3C23.7,15.3,23.7,11.7,23.2,8z M2.3,8.3l0.1-0.9c0.2-1.1,1.1-2,2.2-2.1
	l1.2-0.1c4-0.4,8-0.4,12,0L19,5.3c1.1,0.1,2,1,2.2,2.1l0.1,0.9c0,0.3,0.1,0.6,0.1,0.9H2.2C2.2,8.9,2.2,8.6,2.3,8.3z M21.2,18.6
	c-0.1,0.9-0.9,1.6-1.8,1.7l-1.6,0.2c-4,0.4-8.1,0.4-12.1,0l-1.6-0.2c-0.9-0.1-1.6-0.8-1.8-1.7c-0.4-2.5-0.5-5-0.4-7.4h19.5
	C21.7,13.7,21.6,16.2,21.2,18.6z"/>
</svg>
