<?xml version="1.0" encoding="utf-8"?>
<!-- Generator: Adobe Illustrator 25.0.0, SVG Export Plug-In . SVG Version: 6.00 Build 0)  -->
<svg version="1.1" id="Capa_1" xmlns="http://www.w3.org/2000/svg" xmlns:xlink="http://www.w3.org/1999/xlink" x="0px" y="0px"
	 viewBox="0 0 15.5 20.2" style="enable-background:new 0 0 15.5 20.2;" xml:space="preserve">
<style type="text/css">
	.st0{fill:#4C1D15;}
</style>
<g>
	<path class="st0" d="M12.2,2.1L11.4,2C11.1,0.8,10,0,8.8,0h-2C5.5,0,4.4,0.8,4.1,2L3.3,2.1C1.4,2.3,0,3.9,0,5.8v10.5
		c0,1.8,1.4,3.4,3.2,3.6c3,0.4,6.1,0.4,9.1,0c1.8-0.2,3.2-1.8,3.2-3.6V5.8C15.5,3.9,14.1,2.3,12.2,2.1z M5.5,2.7
		c0-0.7,0.6-1.2,1.2-1.2h2c0.7,0,1.2,0.6,1.2,1.2V4H5.5V2.7z M14,16.3c0,1.1-0.8,2-1.9,2.1c-2.9,0.4-5.8,0.4-8.7,0
		c-1.1-0.1-1.9-1-1.9-2.1V5.8c0-1.1,0.8-2.1,2-2.2L4,3.5v1.2c0,0.4,0.3,0.8,0.8,0.8h6c0.4,0,0.8-0.3,0.8-0.8V3.5L12,3.6
		c1.1,0.1,2,1.1,2,2.2V16.3z"/>
	<path class="st0" d="M10.8,8.7h-6C4.3,8.7,4,9.1,4,9.5s0.3,0.8,0.8,0.8h6c0.4,0,0.8-0.3,0.8-0.8S11.2,8.7,10.8,8.7z"/>
	<path class="st0" d="M9.8,11.7h-5c-0.4,0-0.8,0.3-0.8,0.8s0.3,0.8,0.8,0.8h5c0.4,0,0.8-0.3,0.8-0.8S10.2,11.7,9.8,11.7z"/>
</g>
</svg>
