<svg xmlns="http://www.w3.org/2000/svg" width="14.198" height="18.684" viewBox="0 0 14.198 18.684">
  <path id="Bookmark" d="M15.924,4.418a23.778,23.778,0,0,0-7.848,0,1.194,1.194,0,0,0-.973.94,35.64,35.64,0,0,0-.142,13.327l.164.912,3.671-3.487a1.75,1.75,0,0,1,2.411,0l3.67,3.487.164-.912A35.64,35.64,0,0,0,16.9,5.358,1.194,1.194,0,0,0,15.924,4.418Zm-8.1-1.479a25.278,25.278,0,0,1,8.344,0,2.694,2.694,0,0,1,2.2,2.123,37.139,37.139,0,0,1,.148,13.888l-.221,1.235a1.323,1.323,0,0,1-2.214.726L12.172,17.2a.25.25,0,0,0-.344,0L7.919,20.911a1.323,1.323,0,0,1-2.214-.726L5.484,18.95A37.14,37.14,0,0,1,5.632,5.062,2.694,2.694,0,0,1,7.828,2.939Z" transform="translate(-4.901 -2.592)" fill="#4c1d15" fill-rule="evenodd"/>
</svg>
