<?xml version="1.0" encoding="utf-8"?>
<!-- Generator: Adobe Illustrator 25.0.0, SVG Export Plug-In . SVG Version: 6.00 Build 0)  -->
<svg version="1.1" id="Capa_1" xmlns="http://www.w3.org/2000/svg" xmlns:xlink="http://www.w3.org/1999/xlink" x="0px" y="0px"
	 viewBox="0 0 17.5 17.5" style="enable-background:new 0 0 17.5 17.5;" xml:space="preserve">
<style type="text/css">
	.st0{fill-rule:evenodd;clip-rule:evenodd;fill:#4C1D15;}
</style>
<g>
	<path class="st0" d="M12.2,10L9.5,8.3V3.8C9.5,3.3,9.2,3,8.8,3S8,3.3,8,3.8v5C8,9,8.1,9.2,8.4,9.4l3,1.9c0.4,0.2,0.8,0.1,1-0.2
		C12.6,10.7,12.5,10.2,12.2,10z"/>
	<path class="st0" d="M8.8,0C3.9,0,0,3.9,0,8.8c0,4.8,3.9,8.8,8.8,8.8s8.8-3.9,8.8-8.8C17.5,3.9,13.6,0,8.8,0z M8.8,16
		c-4,0-7.2-3.2-7.2-7.2c0-4,3.2-7.2,7.2-7.2S16,4.7,16,8.8C16,12.8,12.8,16,8.8,16z"/>
</g>
</svg>
