<?xml version="1.0" encoding="utf-8"?>
<!-- Generator: Adobe Illustrator 25.0.0, SVG Export Plug-In . SVG Version: 6.00 Build 0)  -->
<svg version="1.1" id="Capa_1" xmlns="http://www.w3.org/2000/svg" xmlns:xlink="http://www.w3.org/1999/xlink" x="0px" y="0px"
	 viewBox="0 0 23 23" style="enable-background:new 0 0 23 23;" xml:space="preserve">
<style type="text/css">
	.st0{fill:#4C1D15;}
</style>
<g>
	<path class="st0" d="M11.5,0C5.1,0,0,5.1,0,11.5S5.1,23,11.5,23S23,17.9,23,11.5S17.9,0,11.5,0z M15.3,11c-0.3,1.6-1.1,3-2.3,4
		L9,18.4c-0.3,0.2-0.7,0.3-1.1,0.3c-0.7-0.1-1.2-0.8-1.1-1.5L7.7,12c0.3-1.6,1.1-3,2.3-4L14,4.6c0.3-0.2,0.7-0.3,1.1-0.3
		c0.7,0.1,1.2,0.8,1.1,1.5L15.3,11z"/>
	<circle class="st0" cx="11.5" cy="11.5" r="1.5"/>
</g>
</svg>
