<?xml version="1.0" encoding="utf-8"?>
<!-- Generator: Adobe Illustrator 25.0.0, SVG Export Plug-In . SVG Version: 6.00 Build 0)  -->
<svg version="1.1" id="Capa_1" xmlns="http://www.w3.org/2000/svg" xmlns:xlink="http://www.w3.org/1999/xlink" x="0px" y="0px"
	 viewBox="0 0 15.1 14.2" style="enable-background:new 0 0 15.1 14.2;" xml:space="preserve">
<style type="text/css">
	.st0{fill-rule:evenodd;clip-rule:evenodd;fill:#4C1D15;}
</style>
<g>
	<path class="st0" d="M13.5,0H8C7.6,0,7.3,0.3,7.3,0.7c0,0.4,0.3,0.7,0.7,0.7c0,0,0,0,0,0h5.5c0.1,0,0.2,0.1,0.2,0.2v11
		c0,0.1-0.1,0.2-0.2,0.2H8c-0.4,0-0.7,0.3-0.7,0.7c0,0.4,0.3,0.7,0.7,0.7c0,0,0,0,0,0h5.5c0.9,0,1.6-0.7,1.6-1.6v-11
		C15.1,0.7,14.4,0,13.5,0z"/>
	<path class="st0" d="M11.4,8.1v-2c0-0.6-0.5-1.1-1.1-1.1H6.1c0-0.1,0-0.1,0-0.2l0-0.5c-0.1-0.6-0.6-1.1-1.2-1c-0.1,0-0.3,0-0.4,0.1
		C2.9,4,1.6,5,0.4,6.2L0.3,6.3c-0.4,0.4-0.4,1.1,0,1.6L0.4,8c1.1,1.2,2.5,2.2,4,2.9c0.6,0.3,1.2,0,1.5-0.5C6,10.2,6,10.1,6,10l0-0.5
		c0-0.1,0-0.1,0-0.2h4.2C10.9,9.3,11.4,8.7,11.4,8.1z M10.1,7.9l-4.6,0c-0.4,0-0.7,0.3-0.7,0.6c0,0.3,0,0.5-0.1,0.8l0,0.1
		C3.7,9,2.8,8.4,2.1,7.7C1.8,7.5,1.6,7.3,1.5,7.1c0.9-1,2-1.8,3.2-2.4l0,0.1c0,0.3,0,0.5,0.1,0.8c0,0.4,0.3,0.6,0.7,0.6h4.6V7.9z"/>
</g>
</svg>
