<?xml version="1.0" encoding="utf-8"?>
<!-- Generator: Adobe Illustrator 25.0.0, SVG Export Plug-In . SVG Version: 6.00 Build 0)  -->
<svg version="1.1" id="Capa_1" xmlns="http://www.w3.org/2000/svg" xmlns:xlink="http://www.w3.org/1999/xlink" x="0px" y="0px"
	 viewBox="0 0 15.5 19.5" style="enable-background:new 0 0 15.5 19.5;" xml:space="preserve">
<style type="text/css">
	.st0{fill:#4C1D15;}
</style>
<g>
	<path class="st0" d="M15.2,4.9l-3-4.2C11.8,0.3,11.3,0,10.7,0h-8C1.2,0,0,1.2,0,2.8v14c0,1.5,1.2,2.8,2.8,2.8h10
		c1.5,0,2.8-1.2,2.8-2.8V6C15.5,5.6,15.4,5.2,15.2,4.9z M14,16.8c0,0.7-0.6,1.2-1.2,1.2h-10c-0.7,0-1.2-0.6-1.2-1.2v-14
		c0-0.7,0.6-1.2,1.2-1.2H10v4.4c0,0.4,0.3,0.8,0.8,0.8H14V16.8z"/>
	<path class="st0" d="M8.2,7.9C8.1,7.8,7.9,7.8,7.8,7.8h0c-0.2,0-0.3,0.1-0.5,0.2l-2.5,2c-0.3,0.3-0.4,0.7-0.1,1
		c0.3,0.3,0.7,0.4,1.1,0.1l1.3-1v3.4c0,0.4,0.3,0.8,0.8,0.8s0.8-0.3,0.8-0.8v-3.4l1.3,1c0.3,0.3,0.8,0.2,1.1-0.1
		c0.3-0.3,0.2-0.8-0.1-1L8.2,7.9z"/>
</g>
</svg>
