<?xml version="1.0" encoding="utf-8"?>
<!-- Generator: Adobe Illustrator 25.0.0, SVG Export Plug-In . SVG Version: 6.00 Build 0)  -->
<svg version="1.1" id="Capa_1" xmlns="http://www.w3.org/2000/svg" xmlns:xlink="http://www.w3.org/1999/xlink" x="0px" y="0px"
	 viewBox="0 0 17.5 17.5" style="enable-background:new 0 0 17.5 17.5;" xml:space="preserve">
<style type="text/css">
	.st0{fill:#4C1D15;}
</style>
<g>
	<path class="st0" d="M9.3,11.5c-0.9,0-1.8-0.5-2.2-1.3h2.3v-1H6.8c0-0.1,0-0.3,0-0.4s0-0.3,0-0.5h2.6v-1H7.1C7.6,6.5,8.4,6,9.3,6.1
		c0.8,0,1.6,0.4,2,1.2h1.9c-0.5-1.7-2.2-2.8-3.9-2.7c-1.8-0.1-3.5,1.1-4,2.8h-1v1h0.8c0,0.1,0,0.3,0,0.5c0,0.1,0,0.3,0,0.4H4.3v1h1
		c0.6,1.7,2.2,2.9,4,2.9c1.8,0.1,3.4-1,3.9-2.7h-1.9C11,11.1,10.2,11.6,9.3,11.5z"/>
	<path class="st0" d="M8.8,0C3.9,0,0,3.9,0,8.8c0,4.8,3.9,8.8,8.8,8.8s8.8-3.9,8.8-8.8C17.5,3.9,13.6,0,8.8,0z M8.8,16
		c-4,0-7.2-3.2-7.2-7.2c0-4,3.2-7.2,7.2-7.2S16,4.7,16,8.8C16,12.8,12.8,16,8.8,16z"/>
</g>
</svg>
