<?xml version="1.0" encoding="utf-8"?>
<!-- Generator: Adobe Illustrator 25.0.0, SVG Export Plug-In . SVG Version: 6.00 Build 0)  -->
<svg version="1.1" id="Grupo_414" xmlns="http://www.w3.org/2000/svg" xmlns:xlink="http://www.w3.org/1999/xlink" x="0px" y="0px"
	 viewBox="0 0 24.7 22.6" style="enable-background:new 0 0 24.7 22.6;" xml:space="preserve">
<style type="text/css">
	.st0{fill:#4C1D15;}
</style>
<g>
	<path class="st0" d="M24.3,7.6c-0.3-1.7-1.7-3-3.4-3.1l-2.3-0.2V2.7c0-1.1-0.8-2.1-2-2.3L15,0.2c-1.8-0.3-3.6-0.3-5.4,0L8.1,0.4
		c-1.1,0.2-2,1.1-2,2.3v1.5L3.9,4.4C2.1,4.6,0.7,5.9,0.5,7.6c-0.6,3.8-0.6,7.6,0,11.4c0.3,1.7,1.7,3,3.4,3.1l2.5,0.2
		c4,0.3,8.1,0.3,12.1,0l2.5-0.2c1.7-0.1,3.1-1.4,3.4-3.1C24.9,15.2,24.9,11.4,24.3,7.6z M8.1,2.7c0-0.2,0.1-0.3,0.3-0.3L10,2.2
		c1.6-0.2,3.2-0.2,4.8,0l1.6,0.2c0.2,0,0.3,0.2,0.3,0.3v1.4C13.8,4,10.9,4,8.1,4.1V2.7z M22.3,18.6c-0.1,0.8-0.8,1.4-1.6,1.5
		l-2.5,0.2c-3.9,0.3-7.8,0.3-11.8,0L4,20.2c-0.8-0.1-1.5-0.7-1.6-1.5C2.1,16.3,2,13.9,2,11.5l0.2-2.1c0.1-0.5,0.1-1,0.2-1.5
		C2.5,7.1,3.2,6.5,4,6.4l2.5-0.2c3.9-0.3,7.8-0.3,11.8,0l2.5,0.2c0.8,0.1,1.5,0.7,1.6,1.5c0,0.5,0.2,3.3,0.3,3.6
		C22.7,13.9,22.6,16.3,22.3,18.6z"/>
	<circle class="st0" cx="8.6" cy="10.8" r="2"/>
	<rect x="13" y="12.5" transform="matrix(0.866 -0.5 0.5 0.866 -5.0314 10.0781)" class="st0" width="6.6" height="3.9"/>
</g>
</svg>
