<?xml version="1.0" encoding="utf-8"?>
<!-- Generator: Adobe Illustrator 25.0.0, SVG Export Plug-In . SVG Version: 6.00 Build 0)  -->
<svg version="1.1" id="Capa_1" xmlns="http://www.w3.org/2000/svg" xmlns:xlink="http://www.w3.org/1999/xlink" x="0px" y="0px"
	 viewBox="0 0 22.2 26.5" style="enable-background:new 0 0 22.2 26.5;" xml:space="preserve">
<style type="text/css">
	.st0{fill:#4C1D15;}
</style>
<g>
	<path class="st0" d="M11.1,15c3,0,5.4-2.4,5.4-5.4s-2.4-5.4-5.4-5.4S5.7,6.7,5.7,9.7S8.1,15,11.1,15z M11.1,6.4
		c1.8,0,3.2,1.4,3.2,3.2s-1.4,3.2-3.2,3.2s-3.2-1.4-3.2-3.2S9.3,6.4,11.1,6.4z"/>
	<path class="st0" d="M9.1,21.8c0.1,0.1,0.2,0.3,0.4,0.4c1.1,0.9,2.8,0.8,3.7-0.4l5.1-6.3c1.6-2,2.4-4.5,2.2-7.1
		C20.1,3.7,16.1,0,11.3,0h-0.5C6.1,0,2.1,3.7,1.7,8.4c-0.2,2.5,0.6,5.1,2.2,7.1L9.1,21.8z M3.9,8.6c0.3-3.6,3.3-6.4,7-6.4h0.5
		c3.7,0,6.7,2.8,7,6.4c0.2,2-0.5,4-1.7,5.5l-5.1,6.3c0,0,0,0-0.1,0.1c-0.2,0.2-0.5,0.1-0.7-0.1l-5.1-6.3C4.3,12.6,3.7,10.6,3.9,8.6z
		"/>
	<path class="st0" d="M22.1,24.9l-2.9-5.7c-0.3-0.5-0.9-0.7-1.4-0.5c-0.5,0.3-0.7,0.9-0.5,1.4l2.1,4.2H2.8l2.1-4.2
		C5.2,19.6,5,19,4.4,18.7c-0.5-0.3-1.2-0.1-1.4,0.5l-2.9,5.7c-0.3,0.5-0.1,1.2,0.5,1.4c0.1,0.1,0.3,0.1,0.5,0.1h20.1
		c0.6,0,1.1-0.5,1.1-1.1C22.2,25.3,22.2,25.1,22.1,24.9z"/>
</g>
</svg>
