<svg id="Explore" xmlns="http://www.w3.org/2000/svg" width="23.001" height="23.001" viewBox="0 0 23.001 23.001">
  <path id="Trazado_393" data-name="Trazado 393" d="M14.75,5.222a9.529,9.529,0,1,0,9.529,9.529A9.529,9.529,0,0,0,14.75,5.222ZM3.25,14.75a11.5,11.5,0,1,1,11.5,11.5A11.5,11.5,0,0,1,3.25,14.75Z" transform="translate(-3.25 -3.25)" fill="#4c1d15" fill-rule="evenodd"/>
  <path id="Trazado_394" data-name="Trazado 394" d="M11.546,9.951a6.572,6.572,0,0,0-2.307,4l-.576,3.46a1.972,1.972,0,0,0,3.2,1.846l2.709-2.229a6.571,6.571,0,0,0,2.307-4l.576-3.46a1.972,1.972,0,0,0-3.2-1.846Zm1.512,1.566a1.972,1.972,0,1,0,1.972,1.972A1.972,1.972,0,0,0,13.058,11.516Z" transform="translate(-1.557 -1.987)" fill="#4c1d15" fill-rule="evenodd"/>
</svg>
