<?xml version="1.0" encoding="utf-8"?>
<!-- Generator: Adobe Illustrator 25.0.0, SVG Export Plug-In . SVG Version: 6.00 Build 0)  -->
<svg version="1.1" id="Capa_1" xmlns="http://www.w3.org/2000/svg" xmlns:xlink="http://www.w3.org/1999/xlink" x="0px" y="0px"
	 viewBox="0 0 21.6 25.2" style="enable-background:new 0 0 21.6 25.2;" xml:space="preserve">
<style type="text/css">
	.st0{fill-rule:evenodd;clip-rule:evenodd;fill:#4C1D15;}
</style>
<g>
	<path class="st0" d="M18.7,2.2l0.7-0.7c0,0,0,0,0,0c0.4-0.4,0.3-0.9,0-1.3c0,0,0,0,0,0c-0.4-0.4-0.9-0.3-1.3,0l-0.9,0.9
		c-0.6,0.6-0.6,1.5,0,2.1c1.6,1.8,2.5,4.2,2.5,6.6c0,5.5-4.4,9.9-9.9,9.9h0c-2.4,0-4.8-0.9-6.6-2.5c-0.6-0.5-1.5-0.5-2.1,0l-0.9,0.9
		c-0.4,0.4-0.4,0.9,0,1.3s0.9,0.4,1.3,0l0.7-0.7c1.9,1.6,4.2,2.6,6.7,2.8v1.8H6.8c0,0,0,0,0,0c-0.5,0-0.9,0.4-0.9,0.9
		c0,0.5,0.4,0.9,0.9,0.9h6c0,0,0,0,0,0c0.5,0,0.9-0.4,0.9-0.9s-0.4-0.9-0.9-0.9h-2.1v-1.8c2.5-0.2,4.8-1.2,6.7-2.8
		C22.4,14.5,23,7.1,18.7,2.2z"/>
	<path class="st0" d="M9.8,18c4.5,0,8.1-3.6,8.1-8.1s-3.6-8.1-8.1-8.1S1.7,5.4,1.7,9.8S5.4,18,9.8,18z M5.6,13.7
		c-0.5,0-0.9-0.4-0.9-0.9c0-0.5,0.4-0.9,0.9-0.9s0.9,0.4,0.9,0.9C6.5,13.3,6.1,13.7,5.6,13.7z M15,8.6c0,1.5-1.2,2.7-2.7,2.7
		c-1.5,0-2.7-1.2-2.7-2.7c0-1.5,1.2-2.7,2.7-2.7C13.7,5.9,15,7.1,15,8.6z M3.5,9.8c0-3.5,2.8-6.3,6.3-6.3c0.9,0,1.9,0.2,2.7,0.6
		c-0.1,0-0.2,0-0.3,0c-1.5,0-3,0.8-3.8,2.1c-1.4,2.1-0.8,4.9,1.3,6.2c2.1,1.4,4.9,0.8,6.2-1.3c-0.1,0.7-0.4,1.3-0.7,1.9
		c-1.7,3-5.6,4.1-8.6,2.4c0.3-0.2,0.7-0.4,0.9-0.7c1-1.1,0.9-2.8-0.2-3.8c-1.1-1-2.8-0.9-3.8,0.2C3.6,10.6,3.5,10.2,3.5,9.8z"/>
</g>
</svg>
