<?xml version="1.0" encoding="utf-8"?>
<!-- Generator: Adobe Illustrator 25.0.0, SVG Export Plug-In . SVG Version: 6.00 Build 0)  -->
<svg version="1.1" id="Explore" xmlns="http://www.w3.org/2000/svg" xmlns:xlink="http://www.w3.org/1999/xlink" x="0px" y="0px"
	 viewBox="0 0 23 23" style="enable-background:new 0 0 23 23;" xml:space="preserve">
<style type="text/css">
	.st0{fill-rule:evenodd;clip-rule:evenodd;fill:#4C1D15;}
</style>
<g>
	<path class="st0" d="M11.5,0C5.1,0,0,5.1,0,11.5C0,17.9,5.1,23,11.5,23S23,17.9,23,11.5C23,5.1,17.9,0,11.5,0z M11.5,21
		C6.2,21,2,16.8,2,11.5C2,6.2,6.2,2,11.5,2S21,6.2,21,11.5C21,16.8,16.8,21,11.5,21z"/>
	<path class="st0" d="M14.3,5.3c-0.6-0.1-1.1,0.1-1.6,0.4L10,8c-1.2,1-2,2.4-2.3,4l-0.6,3.5c-0.2,1.1,0.5,2.1,1.6,2.3
		c0.6,0.1,1.1-0.1,1.6-0.4L13,15c1.2-1,2-2.4,2.3-4l0.6-3.5C16.1,6.5,15.4,5.5,14.3,5.3z M11.5,13.5c-1.1,0-2-0.9-2-2s0.9-2,2-2v0
		c0,0,0,0,0,0c1.1,0,2,0.9,2,2C13.5,12.6,12.6,13.5,11.5,13.5z"/>
</g>
</svg>
