<?xml version="1.0" encoding="utf-8"?>
<!-- Generator: Adobe Illustrator 25.0.0, SVG Export Plug-In . SVG Version: 6.00 Build 0)  -->
<svg version="1.1" id="Capa_1" xmlns="http://www.w3.org/2000/svg" xmlns:xlink="http://www.w3.org/1999/xlink" x="0px" y="0px"
	 viewBox="0 0 24.7 22.6" style="enable-background:new 0 0 24.7 22.6;" xml:space="preserve">
<style type="text/css">
	.st0{fill-rule:evenodd;clip-rule:evenodd;fill:#4C1D15;}
</style>
<path class="st0" d="M24.3,7.6c-0.3-1.7-1.7-3-3.4-3.1l-2.3-0.2V2.7c0-1.1-0.8-2.1-2-2.3L15,0.2c-1.8-0.3-3.6-0.3-5.4,0L8.1,0.4
	c-1.1,0.2-2,1.1-2,2.3v1.5L3.9,4.4C2.1,4.6,0.7,5.9,0.5,7.6c-0.6,3.8-0.6,7.6,0,11.4c0.3,1.7,1.7,3,3.4,3.1l2.5,0.2
	c4,0.3,8.1,0.3,12.1,0l2.5-0.2c1.7-0.1,3.1-1.4,3.4-3.1C24.9,15.2,24.9,11.4,24.3,7.6z M8.6,12.8c-1.1,0-2-0.9-2-2c0-1.1,0.9-2,2-2
	s2,0.9,2,2C10.6,11.9,9.7,12.8,8.6,12.8z M8.1,4.1V2.7c0-0.2,0.1-0.3,0.3-0.3L10,2.2c1.6-0.2,3.2-0.2,4.8,0l1.6,0.2
	c0.2,0,0.3,0.2,0.3,0.3v1.4C13.8,4,10.9,4,8.1,4.1z M14.4,17.8l-2-3.4l5.7-3.3l2,3.4L14.4,17.8z"/>
</svg>
