<?xml version="1.0" encoding="utf-8"?>
<!-- Generator: Adobe Illustrator 25.0.0, SVG Export Plug-In . SVG Version: 6.00 Build 0)  -->
<svg version="1.1" id="Capa_1" xmlns="http://www.w3.org/2000/svg" xmlns:xlink="http://www.w3.org/1999/xlink" x="0px" y="0px"
	 viewBox="0 0 56.2 51.3" style="enable-background:new 0 0 56.2 51.3;" xml:space="preserve">
<style type="text/css">
	.st0{fill:#E0E0E0;}
</style>
<g>
	<path class="st0" d="M55.1,17.2c-0.6-3.9-3.8-6.8-7.7-7.1l-5.1-0.4V6.2c0-2.6-1.9-4.8-4.4-5.2l-3.6-0.5c-4-0.6-8.1-0.6-12.2,0
		L18.3,1c-2.6,0.4-4.4,2.6-4.4,5.2v3.5l-5.1,0.4c-3.9,0.3-7.1,3.3-7.7,7.1c-1.4,8.6-1.4,17.3,0,25.9c0.6,3.9,3.8,6.8,7.7,7.1
		l5.6,0.5c9.1,0.7,18.3,0.7,27.4,0l5.6-0.5c3.9-0.3,7.1-3.3,7.7-7.1C56.5,34.5,56.5,25.8,55.1,17.2z M18.4,6.2
		c0-0.4,0.3-0.7,0.6-0.7l3.6-0.5c3.6-0.5,7.3-0.5,10.8,0l3.6,0.5c0.4,0.1,0.6,0.4,0.6,0.7v3.2C31.3,9,24.8,9,18.4,9.3V6.2z
		 M51.6,26.2c0,0.5,0,11-0.9,16.2c-0.3,1.8-1.8,3.2-3.7,3.4l-5.6,0.5c-8.9,0.7-17.8,0.7-26.7,0l-5.6-0.5c-1.9-0.2-3.4-1.6-3.7-3.4
		C4.6,37,4.6,26.2,4.6,26.2L5,21.4c0.1-1.2,0.3-2.3,0.5-3.5c0.3-1.8,1.8-3.2,3.7-3.4l5.6-0.5c8.9-0.7,17.8-0.7,26.7,0l5.6,0.5
		c1.9,0.2,3.4,1.6,3.7,3.4C50.9,19.1,51.5,26.8,51.6,26.2C51.6,26.2,51.6,26.2,51.6,26.2L51.6,26.2C51.6,26.2,51.6,26.2,51.6,26.2z"
		/>
	<path class="st0" d="M35.6,29h-6.2v-6.2c0-0.6-0.4-1-1-1s-1,0.4-1,1V29h-6.2c-0.6,0-1,0.4-1,1s0.4,1,1,1h6.2v6.2c0,0.6,0.4,1,1,1
		s1-0.4,1-1V31h6.2c0.6,0,1-0.4,1-1S36.1,29,35.6,29z"/>
</g>
</svg>
