<?xml version="1.0" encoding="utf-8"?>
<!-- Generator: Adobe Illustrator 25.0.0, SVG Export Plug-In . SVG Version: 6.00 Build 0)  -->
<svg version="1.1" id="Capa_1" xmlns="http://www.w3.org/2000/svg" xmlns:xlink="http://www.w3.org/1999/xlink" x="0px" y="0px"
	 viewBox="0 0 13.5 15.5" style="enable-background:new 0 0 13.5 15.5;" xml:space="preserve">
<style type="text/css">
	.st0{fill:#4C1D15;}
</style>
<g>
	<path class="st0" d="M13.3,2.2l-2-2c-0.3-0.3-0.8-0.3-1.1,0c0,0,0,0,0,0l-2,2C7.9,2.5,7.9,3,8.2,3.3c0.3,0.3,0.8,0.3,1.1,0
		c0,0,0,0,0,0L10,2.6v10.2c0,0.4,0.3,0.7,0.8,0.7c0.4,0,0.7-0.3,0.7-0.7V2.6l0.7,0.7c0.3,0.3,0.8,0.3,1.1,0
		C13.5,3,13.5,2.5,13.3,2.2z"/>
	<path class="st0" d="M4.2,12.2l-0.7,0.7V2.8C3.5,2.3,3.2,2,2.8,2S2,2.3,2,2.8v10.2l-0.7-0.7c-0.3-0.3-0.8-0.3-1,0
		c-0.3,0.3-0.3,0.8,0,1.1l2,2c0,0,0,0,0,0c0.3,0.3,0.8,0.3,1.1,0l2-2c0,0,0,0,0,0c0.3-0.3,0.3-0.8,0-1.1S4.5,11.9,4.2,12.2z"/>
</g>
</svg>
