<?xml version="1.0" encoding="utf-8"?>
<!-- Generator: Adobe Illustrator 25.0.0, SVG Export Plug-In . SVG Version: 6.00 Build 0)  -->
<svg version="1.1" id="Capa_1" xmlns="http://www.w3.org/2000/svg" xmlns:xlink="http://www.w3.org/1999/xlink" x="0px" y="0px"
	 viewBox="0 0 20.2 15" style="enable-background:new 0 0 20.2 15;" xml:space="preserve">
<style type="text/css">
	.st0{fill-rule:evenodd;clip-rule:evenodd;fill:#4C1D15;}
</style>
<g>
	<path class="st0" d="M19.3,6.5H1c-0.5,0-1,0.4-1,1c0,0.5,0.4,1,1,1h18.3c0.5,0,1-0.4,1-1c0,0,0,0,0,0C20.2,7,19.8,6.5,19.3,6.5z"/>
	<path class="st0" d="M19.3,0C19.3,0,19.3,0,19.3,0H1C0.4,0,0,0.4,0,1c0,0.5,0.4,1,1,1h18.3c0.5,0,1-0.4,1-1c0,0,0,0,0,0
		C20.2,0.4,19.8,0,19.3,0z"/>
	<path class="st0" d="M19.3,13.1H1c-0.5,0-1,0.4-1,1s0.4,1,1,1h18.3c0.5,0,1-0.4,1-1c0,0,0,0,0,0C20.2,13.5,19.8,13.1,19.3,13.1z"/>
</g>
</svg>
