<svg xmlns="http://www.w3.org/2000/svg" width="20.233" height="15.012" viewBox="0 0 20.233 15.012">
  <g id="Menu" transform="translate(-4.25 -6.25)">
    <path id="Trazado_456" data-name="Trazado 456" d="M24.483,12.229a.979.979,0,0,0-.979-.979H5.229a.979.979,0,1,0,0,1.958H23.5A.979.979,0,0,0,24.483,12.229Z" transform="translate(0 1.527)" fill="#4c1d15" fill-rule="evenodd"/>
    <path id="Trazado_457" data-name="Trazado 457" d="M24.483,7.229A.979.979,0,0,0,23.5,6.25H5.229a.979.979,0,1,0,0,1.958H23.5A.979.979,0,0,0,24.483,7.229Z" fill="#4c1d15" fill-rule="evenodd"/>
    <path id="Trazado_458" data-name="Trazado 458" d="M24.483,17.229a.979.979,0,0,0-.979-.979H5.229a.979.979,0,0,0,0,1.958H23.5A.979.979,0,0,0,24.483,17.229Z" transform="translate(0 3.054)" fill="#4c1d15" fill-rule="evenodd"/>
  </g>
</svg>
