<?xml version="1.0" encoding="utf-8"?>
<!-- Generator: Adobe Illustrator 25.0.0, SVG Export Plug-In . SVG Version: 6.00 Build 0)  -->
<svg version="1.1" id="Capa_1" xmlns="http://www.w3.org/2000/svg" xmlns:xlink="http://www.w3.org/1999/xlink" x="0px" y="0px"
	 viewBox="0 0 12.5 13.8" style="enable-background:new 0 0 12.5 13.8;" xml:space="preserve">
<style type="text/css">
	.st0{fill:#4C1D15;}
</style>
<path class="st0" d="M12.2,5.9c-0.9-3.3-4.3-5.3-7.6-4.4c0,0,0,0-0.1,0L4,0.3C3.9,0.2,3.8,0.1,3.7,0.1C3.4-0.1,3.1,0,3,0.3L1.7,3
	c0,0,0,0.1,0,0.1C1.6,3.4,1.8,3.8,2.1,3.8L5,4.6c0.1,0,0.3,0,0.4,0c0.3-0.1,0.4-0.5,0.3-0.8L5.1,2.6c0.8-0.2,1.6-0.2,2.4,0
	c2.7,0.7,4.4,3.4,3.7,6.2c-0.7,2.7-3.4,4.4-6.2,3.7C2.3,11.8,0.6,9,1.3,6.3C1.4,6,1.2,5.7,0.9,5.6C0.6,5.5,0.3,5.7,0.2,6
	c-0.3,1-0.2,2.1,0,3.1c0.9,3.3,4.3,5.3,7.6,4.4C11.2,12.7,13.1,9.2,12.2,5.9z"/>
</svg>
