<svg xmlns="http://www.w3.org/2000/svg" width="13.5" height="15.5" viewBox="0 0 13.5 15.5">
  <g id="Sort" transform="translate(-5.25 -4.25)">
    <path id="Trazado_466" data-name="Trazado 466" d="M13.47,7.53a.75.75,0,0,0,1.061,0l.72-.72V17a.75.75,0,0,0,1.5,0V6.811l.72.72A.75.75,0,0,0,18.53,6.47l-2-2a.75.75,0,0,0-1.061,0l-2,2A.75.75,0,0,0,13.47,7.53Z" fill="#4c1d15"/>
    <path id="Trazado_467" data-name="Trazado 467" d="M8.75,17.189l.72-.72A.75.75,0,1,1,10.53,17.53l-2,2a.75.75,0,0,1-1.061,0l-2-2A.75.75,0,0,1,6.53,16.47l.72.72V7a.75.75,0,0,1,1.5,0Z" fill="#4c1d15"/>
  </g>
</svg>
