<?xml version="1.0" encoding="utf-8"?>
<!-- Generator: Adobe Illustrator 25.0.0, SVG Export Plug-In . SVG Version: 6.00 Build 0)  -->
<svg version="1.1" id="Capa_1" xmlns="http://www.w3.org/2000/svg" xmlns:xlink="http://www.w3.org/1999/xlink" x="0px" y="0px"
	 viewBox="0 0 13.2 17.2" style="enable-background:new 0 0 13.2 17.2;" xml:space="preserve">
<style type="text/css">
	.st0{fill-rule:evenodd;clip-rule:evenodd;fill:#4C1D15;}
</style>
<g>
	<path class="st0" d="M12.6,1.3H8.9V0.6C8.9,0.3,8.7,0,8.3,0H4.9C4.5,0,4.3,0.3,4.3,0.6v0.6H0.6C0.3,1.3,0,1.6,0,1.9
		c0,0.4,0.3,0.6,0.6,0.6h11.9c0.4,0,0.6-0.3,0.6-0.6C13.2,1.6,12.9,1.3,12.6,1.3z"/>
	<path class="st0" d="M4.9,7.2c-0.4,0-0.6,0.3-0.6,0.6v6c0,0.4,0.3,0.6,0.6,0.6c0.4,0,0.6-0.3,0.6-0.6v-6C5.5,7.4,5.3,7.2,4.9,7.2z"
		/>
	<path class="st0" d="M8.3,7.2C8,7.2,7.7,7.4,7.7,7.8c0,0,0,0,0,0v6c0,0.4,0.3,0.6,0.6,0.6c0.4,0,0.6-0.3,0.6-0.6v-6
		C8.9,7.4,8.7,7.2,8.3,7.2z"/>
	<path class="st0" d="M11.7,4.8c0-0.3-0.3-0.6-0.6-0.6h-9c-0.3,0-0.6,0.2-0.6,0.6L1.3,6.4C1,9.1,1,11.9,1.3,14.7l0,0.2
		c0.1,1.1,1,2,2.1,2.1c2.1,0.3,4.3,0.3,6.4,0c1.1-0.2,2-1,2.1-2.1l0-0.2c0.3-2.8,0.3-5.6,0-8.4L11.7,4.8z M10.6,14.6l0,0.2
		c-0.1,0.5-0.5,0.9-1,1c-2,0.3-4,0.3-6,0c-0.5-0.1-0.9-0.5-1-1l0-0.2c-0.3-2.7-0.3-5.4,0-8.1l0.1-1h7.8l0.1,1
		C10.9,9.2,10.9,11.9,10.6,14.6z"/>
</g>
</svg>
