<?xml version="1.0" encoding="utf-8"?>
<!-- Generator: Adobe Illustrator 25.0.0, SVG Export Plug-In . SVG Version: 6.00 Build 0)  -->
<svg version="1.1" id="Capa_1" xmlns="http://www.w3.org/2000/svg" xmlns:xlink="http://www.w3.org/1999/xlink" x="0px" y="0px"
	 viewBox="0 0 12.7 17.2" style="enable-background:new 0 0 12.7 17.2;" xml:space="preserve">
<style type="text/css">
	.st0{fill-rule:evenodd;clip-rule:evenodd;fill:#4C1D15;}
</style>
<g>
	<path class="st0" d="M6.9,5.1C6.9,5.1,6.9,5.1,6.9,5.1l1-1c0.3-0.3,0.3-0.8,0-1.1C7.7,2.9,7.5,2.8,7.3,2.8h-2
		c-0.4,0-0.7,0.3-0.7,0.8c0,0.2,0.1,0.4,0.2,0.5l1,1C6.1,5.4,6.6,5.4,6.9,5.1z"/>
	<path class="st0" d="M6.9,12.1C6.9,12.1,6.9,12.1,6.9,12.1c-0.3-0.3-0.8-0.3-1.1,0l-1,1c-0.1,0.1-0.2,0.3-0.2,0.5
		c0,0.4,0.3,0.8,0.7,0.8h2c0.2,0,0.4-0.1,0.5-0.2c0.3-0.3,0.3-0.8,0-1.1L6.9,12.1z"/>
	<path class="st0" d="M12.5,14.8c-1.2-2.3-2.9-4.4-4.8-6.1L7.5,8.6l0.2-0.2c2-1.7,3.6-3.8,4.8-6.1c0.4-0.7,0.1-1.6-0.6-1.9
		c-0.2-0.1-0.4-0.1-0.5-0.2l-1.2-0.1c-2.6-0.2-5.2-0.2-7.7,0L1.3,0.3C0.5,0.3-0.1,1,0,1.8C0,2,0.1,2.2,0.2,2.4C1.4,4.7,3,6.7,5,8.4
		l0.2,0.2L5,8.7c-2,1.7-3.6,3.8-4.8,6.1c-0.4,0.7-0.1,1.6,0.6,1.9c0.2,0.1,0.4,0.1,0.5,0.2L2.5,17c2.6,0.2,5.2,0.2,7.7,0l1.2-0.1
		c0.8-0.1,1.4-0.8,1.3-1.5C12.7,15.2,12.6,15,12.5,14.8z M1.5,1.8l1.1-0.1c2.5-0.2,5-0.2,7.5,0l1.1,0.1c-1.1,2.1-2.6,4-4.4,5.5
		L6.3,7.6v0h0L6,7.3C4.2,5.7,2.7,3.9,1.5,1.8z M10.1,15.5c-2.5,0.2-5,0.2-7.5,0l-1.1-0.1c1.1-2.1,2.6-4,4.4-5.5l0.4-0.3l0.4,0.3
		c1.8,1.6,3.3,3.4,4.5,5.5L10.1,15.5z"/>
</g>
</svg>
