<?xml version="1.0" encoding="utf-8"?>
<!-- Generator: Adobe Illustrator 25.0.0, SVG Export Plug-In . SVG Version: 6.00 Build 0)  -->
<svg version="1.1" id="Capa_1" xmlns="http://www.w3.org/2000/svg" xmlns:xlink="http://www.w3.org/1999/xlink" x="0px" y="0px"
	 viewBox="0 0 22.2 18.4" style="enable-background:new 0 0 22.2 18.4;" xml:space="preserve">
<style type="text/css">
	.st0{fill-rule:evenodd;clip-rule:evenodd;fill:#4C1D15;}
</style>
<g>
	<path class="st0" d="M16.1,7.4c-1,0-1.8,0.8-1.8,1.8c0,1,0.8,1.8,1.8,1.8s1.8-0.8,1.8-1.8C17.9,8.2,17.1,7.4,16.1,7.4z"/>
	<path class="st0" d="M22,5.9c-0.1-1.2-1-2.2-2.1-2.5c-0.7-1.7-2.3-2.9-4.2-3.1L15,0.3C11.5-0.1,7.9-0.1,4.3,0.3L3.8,0.4
		C2,0.6,0.6,2,0.4,3.8c-0.5,3.6-0.5,7.2,0,10.7C0.6,16.4,2,17.8,3.8,18L4.3,18c3.6,0.4,7.2,0.4,10.7,0.1l0.7-0.1
		c1.8-0.2,3.4-1.4,4.2-3.1c1.1-0.3,2-1.3,2.1-2.5C22.3,10.3,22.3,8.1,22,5.9z M15.6,16.4l-0.7,0.1c-3.4,0.4-6.9,0.3-10.4-0.1L4,16.4
		c-1.1-0.1-1.9-1-2.1-2C1.5,10.9,1.5,7.5,2,4C2.1,3,3,2.1,4,2L4.5,2c3.4-0.4,6.9-0.4,10.4-0.1L15.6,2c0.9,0.1,1.7,0.5,2.3,1.2
		c-1.6-0.1-3.3-0.1-4.9,0.1c-1.4,0.2-2.5,1.2-2.7,2.6c-0.3,2.2-0.3,4.3,0,6.5c0.2,1.4,1.3,2.5,2.6,2.6c1.6,0.2,3.3,0.2,4.9,0.1
		C17.3,15.9,16.5,16.3,15.6,16.4z M20.4,12.3c-0.1,0.6-0.6,1.1-1.2,1.2l-0.3,0l-0.2,0l0,0v0c-1.8,0.2-3.7,0.1-5.5-0.1
		c-0.6-0.1-1.1-0.6-1.2-1.2c-0.2-2-0.2-4.1,0-6.1C12,5.5,12.5,5,13.2,4.9c1.8-0.2,3.7-0.2,5.5-0.1v0l0,0l0.2,0l0.3,0
		c0.6,0.1,1.1,0.6,1.2,1.2C20.7,8.2,20.7,10.2,20.4,12.3z"/>
</g>
</svg>
