<?xml version="1.0" encoding="utf-8"?>
<!-- Generator: Adobe Illustrator 25.0.0, SVG Export Plug-In . SVG Version: 6.00 Build 0)  -->
<svg version="1.1" id="Capa_1" xmlns="http://www.w3.org/2000/svg" xmlns:xlink="http://www.w3.org/1999/xlink" x="0px" y="0px"
	 viewBox="0 0 21.6 23" style="enable-background:new 0 0 21.6 23;" xml:space="preserve">
<style type="text/css">
	.st0{fill:#4C1D15;}
</style>
<g>
	<circle class="st0" cx="10.8" cy="5.2" r="5.2"/>
	<path class="st0" d="M16.4,13.3C16.4,13.3,16.4,13.3,16.4,13.3h-0.5c-0.3,0-0.5,0-0.8,0.1L14,13.8c-2,0.7-4.2,0.7-6.3,0l-1.2-0.4
		c-0.2-0.1-0.5-0.1-0.8-0.1H5.2c-2.9,0-5.2,2.3-5.2,5.2v1.7c0,1.1,0.8,1.9,1.8,2.1c6,1,12.1,1,18,0c1-0.2,1.8-1.1,1.8-2.1v-1.7
		C21.6,15.6,19.3,13.3,16.4,13.3z"/>
</g>
</svg>
