<?xml version="1.0" encoding="utf-8"?>
<!-- Generator: Adobe Illustrator 25.0.0, SVG Export Plug-In . SVG Version: 6.00 Build 0)  -->
<svg version="1.1" id="User" xmlns="http://www.w3.org/2000/svg" xmlns:xlink="http://www.w3.org/1999/xlink" x="0px" y="0px"
	 viewBox="0 0 14.9 16.4" style="enable-background:new 0 0 14.9 16.4;" xml:space="preserve">
<style type="text/css">
	.st0{fill-rule:evenodd;clip-rule:evenodd;fill:#4C1D15;}
</style>
<g>
	<path class="st0" d="M7.5,8.2c2.3,0,4.1-1.8,4.1-4.1C11.6,1.8,9.7,0,7.5,0S3.4,1.8,3.4,4.1C3.4,6.4,5.2,8.2,7.5,8.2z M7.5,1.4
		L7.5,1.4c1.5,0,2.6,1.2,2.7,2.7c0,0,0,0,0,0c0,1.5-1.2,2.7-2.7,2.7S4.8,5.6,4.8,4.1C4.8,2.6,6,1.4,7.5,1.4z"/>
	<path class="st0" d="M11.3,9.6H11c-0.2,0-0.4,0-0.5,0.1L9.6,10c-1.4,0.5-2.9,0.5-4.3,0L4.5,9.7C4.3,9.7,4.1,9.6,3.9,9.6H3.6
		c-2,0-3.6,1.6-3.6,3.6v1.1c0,0.7,0.5,1.3,1.2,1.5c4.1,0.7,8.3,0.7,12.5,0c0.7-0.1,1.2-0.7,1.2-1.5v-1.1
		C14.9,11.3,13.3,9.6,11.3,9.6z M13.5,14.4C13.5,14.4,13.5,14.4,13.5,14.4c-4,0.7-8.1,0.7-12,0c0,0,0,0,0,0v-1.1
		c0-1.2,1-2.2,2.2-2.2h0.3c0,0,0.1,0,0.1,0l0.8,0.3c1.7,0.6,3.5,0.6,5.2,0l0.8-0.3c0,0,0,0,0.1,0h0.3c0,0,0,0,0,0
		c1.2,0,2.2,1,2.2,2.2V14.4z"/>
</g>
</svg>
