<svg xmlns="http://www.w3.org/2000/svg" width="15.5" height="20.221" viewBox="0 0 15.5 20.221">
  <g id="Clipboard-alt" transform="translate(-4.25 -2.25)">
    <path id="Trazado_426" data-name="Trazado 426" d="M15.65,4.263l.813.1A3.75,3.75,0,0,1,19.75,8.085V18.575a3.641,3.641,0,0,1-3.191,3.613,36.884,36.884,0,0,1-9.118,0A3.641,3.641,0,0,1,4.25,18.575V8.085A3.75,3.75,0,0,1,7.537,4.364l.813-.1A2.751,2.751,0,0,1,11,2.25h2A2.751,2.751,0,0,1,15.65,4.263ZM8.25,5.787l-.528.066A2.25,2.25,0,0,0,5.75,8.085V18.575A2.141,2.141,0,0,0,7.626,20.7a35.391,35.391,0,0,0,8.747,0,2.141,2.141,0,0,0,1.876-2.125V8.085a2.25,2.25,0,0,0-1.972-2.233l-.528-.066V7a.75.75,0,0,1-.75.75H9A.75.75,0,0,1,8.25,7ZM9.75,5A1.25,1.25,0,0,1,11,3.75h2A1.25,1.25,0,0,1,14.25,5V6.25H9.75Z" fill="#4c1d15" fill-rule="evenodd"/>
    <path id="Trazado_427" data-name="Trazado 427" d="M15.75,11.75A.75.75,0,0,0,15,11H9a.75.75,0,0,0,0,1.5h6A.75.75,0,0,0,15.75,11.75Z" fill="#4c1d15"/>
    <path id="Trazado_428" data-name="Trazado 428" d="M14.75,14.75A.75.75,0,0,0,14,14H9a.75.75,0,0,0,0,1.5h5A.75.75,0,0,0,14.75,14.75Z" fill="#4c1d15"/>
  </g>
</svg>
