<svg xmlns="http://www.w3.org/2000/svg" width="56.158" height="51.259" viewBox="0 0 56.158 51.259">
  <g id="Grupo_465" data-name="Grupo 465" transform="translate(-5722 -444.757)">
    <g id="Grupo_464" data-name="Grupo 464" transform="translate(5695.128 -56)">
      <g id="Grupo_414" data-name="Grupo 414" transform="translate(26.871 500.757)">
        <path id="Bag" d="M16.493,13.054V9.562A5.224,5.224,0,0,1,20.943,4.4l3.642-.546a41.047,41.047,0,0,1,12.178,0L40.4,4.4a5.224,5.224,0,0,1,4.449,5.166v3.492l5.117.413a8.538,8.538,0,0,1,7.742,7.146,80.983,80.983,0,0,1,0,25.892,8.538,8.538,0,0,1-7.742,7.146l-5.588.451a170.386,170.386,0,0,1-27.416,0l-5.588-.451a8.539,8.539,0,0,1-7.742-7.146,80.984,80.984,0,0,1,0-25.892,8.538,8.538,0,0,1,7.742-7.146Zm8.755-4.776a36.568,36.568,0,0,1,10.849,0l3.642.546a.746.746,0,0,1,.636.738V12.74a170.384,170.384,0,0,0-19.4,0V9.562a.746.746,0,0,1,.636-.738Zm-7.923,9.2a165.9,165.9,0,0,1,26.7,0l5.588.451a4.061,4.061,0,0,1,3.682,3.4c.186,1.149.823,9.171.879,8.22H7.177l.4-4.765q.2-1.732.479-3.456a4.061,4.061,0,0,1,3.682-3.4ZM7.177,29.549H54.169s-.008,10.866-.879,16.24a4.06,4.06,0,0,1-3.682,3.4l-5.588.451a165.85,165.85,0,0,1-26.7,0l-5.588-.451a4.06,4.06,0,0,1-3.682-3.4C7.185,40.415,7.177,29.549,7.177,29.549Z" transform="translate(-2.594 -3.395)" fill="#e0e0e0" fill-rule="evenodd"/>
      </g>
      <g id="Plus" transform="translate(41.006 516.543)">
        <path id="Trazado_430" data-name="Trazado 430" d="M12,21.45V7" transform="translate(2.225)" fill="none" stroke="#e0e0e0" stroke-linecap="round" stroke-width="2"/>
        <path id="Trazado_431" data-name="Trazado 431" d="M7,12H21.45" transform="translate(0 2.225)" fill="none" stroke="#e0e0e0" stroke-linecap="round" stroke-width="2"/>
      </g>
    </g>
  </g>
</svg>
