<svg xmlns="http://www.w3.org/2000/svg" width="13.203" height="17.244" viewBox="0 0 13.203 17.244">
  <g id="Trash" transform="translate(-4.25 -2.25)">
    <path id="Trazado_450" data-name="Trazado 450" d="M9.148,2.25a.639.639,0,0,0-.639.639v.639H4.889a.639.639,0,0,0,0,1.278H16.814a.639.639,0,0,0,0-1.278h-3.62V2.889a.639.639,0,0,0-.639-.639Z" fill="#4c1d15"/>
    <path id="Trazado_451" data-name="Trazado 451" d="M9.889,10.65a.639.639,0,0,1,.639.639v5.963a.639.639,0,0,1-1.278,0V11.289A.639.639,0,0,1,9.889,10.65Z" transform="translate(-0.741 -1.245)" fill="#4c1d15"/>
    <path id="Trazado_452" data-name="Trazado 452" d="M14.528,11.289a.639.639,0,1,0-1.278,0v5.963a.639.639,0,0,0,1.278,0Z" transform="translate(-1.334 -1.245)" fill="#4c1d15"/>
    <path id="Trazado_453" data-name="Trazado 453" d="M5.921,7.818a.639.639,0,0,1,.635-.568h8.966a.639.639,0,0,1,.635.568l.17,1.534a37.9,37.9,0,0,1,0,8.37l-.017.151a2.43,2.43,0,0,1-2.078,2.138,23.032,23.032,0,0,1-6.387,0,2.43,2.43,0,0,1-2.078-2.138l-.017-.151a37.9,37.9,0,0,1,0-8.37Zm1.207.709-.107.966a36.619,36.619,0,0,0,0,8.088l.017.151a1.153,1.153,0,0,0,.986,1.014,21.76,21.76,0,0,0,6.032,0,1.153,1.153,0,0,0,.986-1.014l.017-.151a36.617,36.617,0,0,0,0-8.088l-.107-.966Z" transform="translate(-0.188 -0.741)" fill="#4c1d15" fill-rule="evenodd"/>
  </g>
</svg>
