<svg xmlns="http://www.w3.org/2000/svg" width="14.911" height="14.284" viewBox="0 0 14.911 14.284">
  <g id="Checked-box" transform="translate(-3.524 -3.51)">
    <path id="Trazado_443" data-name="Trazado 443" d="M6.855,4.982A2.091,2.091,0,0,0,5.01,6.8a33.146,33.146,0,0,0,0,7.7,2.091,2.091,0,0,0,1.845,1.82,34.492,34.492,0,0,0,7.6,0A2.091,2.091,0,0,0,16.3,14.5a33.143,33.143,0,0,0,.182-5.536.168.168,0,0,1,.049-.128l.874-.874a.167.167,0,0,1,.285.1,34.407,34.407,0,0,1-.136,6.579,3.353,3.353,0,0,1-2.958,2.927,35.761,35.761,0,0,1-7.879,0,3.353,3.353,0,0,1-2.958-2.927,34.406,34.406,0,0,1,0-7.994A3.353,3.353,0,0,1,6.714,3.728a35.753,35.753,0,0,1,7.879,0,3.355,3.355,0,0,1,1.48.537.161.161,0,0,1,.022.249l-.675.675a.178.178,0,0,1-.21.028,2.092,2.092,0,0,0-.756-.235A34.491,34.491,0,0,0,6.855,4.982Z" transform="translate(0)" fill="#4c1d15"/>
    <path id="Trazado_444" data-name="Trazado 444" d="M18.921,5.827a.631.631,0,0,0-.892-.892L10.9,12.059,8.827,9.982a.631.631,0,0,0-.892.892L10.458,13.4a.631.631,0,0,0,.892,0Z" transform="translate(-0.671 -0.197)" fill="#4c1d15"/>
  </g>
</svg>
