<svg xmlns="http://www.w3.org/2000/svg" width="14.26" height="14.283" viewBox="0 0 14.26 14.283">
  <g id="Checked-box" transform="translate(-3.524 -3.51)">
    <path id="Unión_2" data-name="Unión 2" d="M-996.693-2348.772l-.043-.005-.018,0-.024,0-.021,0-.012,0-.053-.008-.011,0a3.339,3.339,0,0,1-.806-.243h0l-.031-.014h0l-.052-.024-.011-.006-.021-.01-.022-.011-.014-.007-.038-.02-.006,0-.038-.02h0a3.338,3.338,0,0,1-1.728-2.541q-.082-.7-.136-1.411v0q-.012-.163-.023-.325v-.022l-.006-.093,0-.037,0-.075,0-.048,0-.07,0-.045q0-.055-.006-.109l0-.048,0-.063,0-.062,0-.05,0-.068,0-.041,0-.071,0-.041q0-.078-.006-.155v-.017l0-.073c0-.013,0-.027,0-.04l0-.069v-.046q0-.034,0-.067v-.042c0-.024,0-.048,0-.072,0-.008,0-.015,0-.022q0-.079,0-.158v-.031c0-.024,0-.047,0-.071v-.11c0-.016,0-.032,0-.048s0-.042,0-.063,0-.039,0-.058,0-.036,0-.054q0-.053,0-.106c0-.018,0-.035,0-.053s0-.042,0-.063,0-.034,0-.051,0-.044,0-.066,0-.032,0-.048,0-.048,0-.072,0-.03,0-.044c0-.031,0-.062,0-.092,0-.007,0-.014,0-.021,0-.039,0-.077,0-.116v-.027c0-.031,0-.062,0-.093v-.03c0-.031,0-.061,0-.091v-.027c0-.033,0-.066,0-.1v-.019q0-.121.008-.242v-.01c0-.036,0-.073,0-.11v-.017c0-.037,0-.074,0-.111v-.009q.011-.247.025-.495v0q.047-.808.132-1.615l0-.015.011-.1,0-.024.011-.1,0-.023c0-.039.009-.079.014-.118a3.353,3.353,0,0,1,2.957-2.928,35.815,35.815,0,0,1,7.879,0l.043.005.018,0,.025,0,.021,0,.037.006.024,0,.018,0,.026,0,.013,0,.05.01.013,0,.027.006.013,0,.059.013h0l.027.006.015,0,.025.006.018,0,.038.01.02.006.021.006.023.007.022.007.033.01.017.005.027.009.014,0,.041.014.007,0,.036.013.009,0,.087.033,0,0a3.344,3.344,0,0,1,2.083,2.708q.082.7.136,1.412v0a34.332,34.332,0,0,1-.094,6.2v.013l-.011.1,0,.022-.011.1,0,.025-.014.117a3.351,3.351,0,0,1-2.957,2.927,35.454,35.454,0,0,1-3.94.218A35.453,35.453,0,0,1-996.693-2348.772Zm.14-1.254a34.471,34.471,0,0,0,7.6,0,2.092,2.092,0,0,0,1.845-1.82l.014-.119v0a33.182,33.182,0,0,0-.014-7.579,2.09,2.09,0,0,0-1.845-1.82,34.471,34.471,0,0,0-7.6,0,2.09,2.09,0,0,0-1.845,1.82l-.011.095-.008.068,0,.018a33.151,33.151,0,0,0-.16,5.354s0,.006,0,.01q.055,1.08.181,2.156a2.08,2.08,0,0,0,1.079,1.579l.01,0a2.09,2.09,0,0,0,.756.236Z" transform="translate(1003.407 2366.348)" fill="#4c1d15"/>
  </g>
</svg>
