<svg xmlns="http://www.w3.org/2000/svg" width="15.785" height="15.797" viewBox="0 0 15.785 15.797">
  <g id="Copy" transform="translate(-3.25 -3.25)">
    <path id="Trazado_454" data-name="Trazado 454" d="M8.522,3.25A5.272,5.272,0,0,0,3.25,8.522v6.517a.688.688,0,1,0,1.375,0V8.522a3.9,3.9,0,0,1,3.9-3.9h6.43a.688.688,0,0,0,0-1.375Z" fill="#4c1d15"/>
    <path id="Trazado_455" data-name="Trazado 455" d="M17.417,6.771a40.687,40.687,0,0,0-8.991,0A1.844,1.844,0,0,0,6.8,8.385a39.045,39.045,0,0,0,0,9.071A1.844,1.844,0,0,0,8.426,19.07a40.678,40.678,0,0,0,8.991,0,1.844,1.844,0,0,0,1.627-1.614,39.042,39.042,0,0,0,0-9.071A1.844,1.844,0,0,0,17.417,6.771ZM8.579,8.138a39.31,39.31,0,0,1,8.685,0,.468.468,0,0,1,.413.407,37.664,37.664,0,0,1,0,8.752.468.468,0,0,1-.413.407,39.3,39.3,0,0,1-8.685,0,.469.469,0,0,1-.413-.407,37.67,37.67,0,0,1,0-8.752A.469.469,0,0,1,8.579,8.138Z" transform="translate(-0.273 -0.272)" fill="#4c1d15" fill-rule="evenodd"/>
  </g>
</svg>
