<svg xmlns="http://www.w3.org/2000/svg" width="17.5" height="17.5" viewBox="0 0 17.5 17.5">
  <path id="Unión_3" data-name="Unión 3" d="M0,8.75A8.75,8.75,0,1,1,8.75,17.5,8.75,8.75,0,0,1,0,8.75Zm1.5,0A7.25,7.25,0,1,0,8.75,1.5,7.25,7.25,0,0,0,1.5,8.75Zm3.8,1.478H4.276v-1H5.1c-.012-.144-.024-.288-.024-.432s.013-.312.024-.456H4.276v-1H5.308A4.088,4.088,0,0,1,9.328,4.516a3.931,3.931,0,0,1,3.924,2.712h-1.92A2.153,2.153,0,0,0,9.316,6.064,2.369,2.369,0,0,0,7.132,7.348h2.3v1h-2.6c-.012.144-.024.3-.024.456s.013.288.024.432h2.6v1H7.12a2.386,2.386,0,0,0,2.2,1.309,2.142,2.142,0,0,0,2.016-1.176h1.92a3.917,3.917,0,0,1-3.924,2.712A4.09,4.09,0,0,1,5.3,10.228Z" fill="#4c1d15"/>
</svg>
