<svg xmlns="http://www.w3.org/2000/svg" width="15.5" height="19.5" viewBox="0 0 15.5 19.5">
  <g id="File-upload" transform="translate(-4.25 -2.25)">
    <path id="Trazado_422" data-name="Trazado 422" d="M4.25,5A2.75,2.75,0,0,1,7,2.25h7.987a1.75,1.75,0,0,1,1.422.73l3.013,4.2A1.75,1.75,0,0,1,19.75,8.2V19A2.75,2.75,0,0,1,17,21.75H7A2.75,2.75,0,0,1,4.25,19ZM7,3.75A1.25,1.25,0,0,0,5.75,5V19A1.25,1.25,0,0,0,7,20.25H17A1.25,1.25,0,0,0,18.25,19V8.9H15a.75.75,0,0,1-.75-.75V3.75Z" fill="#4c1d15" fill-rule="evenodd"/>
    <path id="Trazado_423" data-name="Trazado 423" d="M15.086,13.219a.75.75,0,0,1-1.054.117L12.75,12.311V15.75a.75.75,0,0,1-1.5,0V12.31L9.969,13.336a.75.75,0,0,1-.937-1.171l2.5-2A.747.747,0,0,1,11.994,10H12a.747.747,0,0,1,.472.169l2.494,2A.75.75,0,0,1,15.086,13.219Z" fill="#4c1d15"/>
  </g>
</svg>
