<svg xmlns="http://www.w3.org/2000/svg" width="21.569" height="25.179" viewBox="0 0 21.569 25.179">
  <g id="Grupo_434" data-name="Grupo 434" transform="translate(-1575 -471)">
    <g id="Globe" transform="translate(1575 471)">
      <path id="Trazado_415" data-name="Trazado 415" d="M22.235,2.09a.9.9,0,0,1,0,1.276l-.662.662A11.733,11.733,0,0,1,13.565,23.36V25.2H15.67a.9.9,0,1,1,0,1.8H9.654a.9.9,0,1,1,0-1.8H11.76V23.36a11.683,11.683,0,0,1-6.731-2.788l-.662.662A.9.9,0,1,1,3.09,19.958l.851-.851a1.531,1.531,0,0,1,2.1-.046,9.894,9.894,0,0,0,6.615,2.528h.007a9.928,9.928,0,0,0,7.4-16.546,1.531,1.531,0,0,1,.046-2.1l.851-.851A.9.9,0,0,1,22.235,2.09Z" transform="translate(-2.825 -1.825)" fill="#4c1d15"/>
      <path id="Trazado_416" data-name="Trazado 416" d="M4.25,11.372a8.122,8.122,0,1,1,8.122,8.122A8.122,8.122,0,0,1,4.25,11.372Zm8.122-6.317a6.323,6.323,0,0,0-6.208,7.5,2.708,2.708,0,1,1,3.08,4.311,6.321,6.321,0,0,0,9.321-4.238,4.513,4.513,0,1,1-3.787-6.967q.156,0,.31.01A6.293,6.293,0,0,0,12.372,5.055Zm-.3,5.114a2.707,2.707,0,1,1,2.707,2.707A2.708,2.708,0,0,1,12.072,10.169ZM8.161,13.478a.9.9,0,1,0,.9.9A.9.9,0,0,0,8.161,13.478Z" transform="translate(-2.536 -1.536)" fill="#4c1d15" fill-rule="evenodd"/>
    </g>
  </g>
</svg>
