<svg xmlns="http://www.w3.org/2000/svg" width="15.09" height="14.176" viewBox="0 0 15.09 14.176">
  <g id="Logout" transform="translate(-3.25 -4.25)">
    <path id="Trazado_462" data-name="Trazado 462" d="M11.936,17.054a.686.686,0,1,0,0,1.372h5.487a1.6,1.6,0,0,0,1.6-1.6V5.85a1.6,1.6,0,0,0-1.6-1.6H11.936a.686.686,0,1,0,0,1.372h5.487a.229.229,0,0,1,.229.229V16.825a.229.229,0,0,1-.229.229Z" transform="translate(-0.684)" fill="#4c1d15"/>
    <path id="Trazado_463" data-name="Trazado 463" d="M13.542,13.8a1.143,1.143,0,0,0,1.143-1.143V10.607a1.143,1.143,0,0,0-1.143-1.143H9.323q-.009-.1-.019-.2l-.049-.508a1.122,1.122,0,0,0-1.6-.9,13.772,13.772,0,0,0-3.994,2.893l-.091.095a1.146,1.146,0,0,0,0,1.586l.091.095a13.773,13.773,0,0,0,3.994,2.893,1.122,1.122,0,0,0,1.6-.9L9.3,14q.01-.1.019-.2ZM8.687,12.427A.686.686,0,0,0,8,13.07q-.025.4-.064.8l-.014.148a12.4,12.4,0,0,1-2.618-1.809q-.308-.277-.6-.575A12.4,12.4,0,0,1,7.925,9.247l.014.148q.039.4.064.8a.686.686,0,0,0,.685.643h4.626v1.592Z" transform="translate(0 -0.298)" fill="#4c1d15" fill-rule="evenodd"/>
  </g>
</svg>
