<svg id="Grupo_414" data-name="Grupo 414" xmlns="http://www.w3.org/2000/svg" width="24.726" height="22.569" viewBox="0 0 24.726 22.569">
  <path id="Bag" d="M8.714,7.648V6.111a2.3,2.3,0,0,1,1.959-2.275l1.6-.241a18.073,18.073,0,0,1,5.362,0l1.6.241A2.3,2.3,0,0,1,21.2,6.111V7.648l2.253.182a3.759,3.759,0,0,1,3.409,3.146,35.656,35.656,0,0,1,0,11.4,3.759,3.759,0,0,1-3.409,3.146l-2.46.2a75.02,75.02,0,0,1-12.071,0l-2.46-.2a3.76,3.76,0,0,1-3.409-3.146,35.657,35.657,0,0,1,0-11.4A3.759,3.759,0,0,1,6.461,7.83Zm3.855-2.1a16.1,16.1,0,0,1,4.777,0l1.6.24a.329.329,0,0,1,.28.325v1.4a75.019,75.019,0,0,0-8.543,0v-1.4a.329.329,0,0,1,.28-.325ZM9.08,9.6a73.044,73.044,0,0,1,11.754,0l2.46.2a1.788,1.788,0,0,1,1.621,1.5c.082.506.362,4.038.387,3.619H4.611l.176-2.1q.088-.763.211-1.522A1.788,1.788,0,0,1,6.619,9.8ZM4.611,14.911H25.3a62.951,62.951,0,0,1-.387,7.151,1.788,1.788,0,0,1-1.621,1.5l-2.46.2a73.023,73.023,0,0,1-11.754,0l-2.46-.2A1.788,1.788,0,0,1,5,22.061,62.957,62.957,0,0,1,4.611,14.911Z" transform="translate(-2.594 -3.395)" fill="#4c1d15" fill-rule="evenodd"/>
  <circle id="Elipse_100" data-name="Elipse 100" cx="2" cy="2" r="2" transform="translate(6.593 8.826)" fill="#4c1d15"/>
  <rect id="Rectángulo_682" data-name="Rectángulo 682" width="6.572" height="3.943" transform="translate(12.422 14.393) rotate(-30)" fill="#4c1d15"/>
</svg>
