<svg xmlns="http://www.w3.org/2000/svg" width="21.5" height="21.5" viewBox="0 0 21.5 21.5">
  <g id="Sun" transform="translate(-1.25 -1.25)">
    <path id="Trazado_434" data-name="Trazado 434" d="M12,1.25a.75.75,0,0,1,.75.75V3a.75.75,0,0,1-1.5,0V2A.75.75,0,0,1,12,1.25Z" fill="#4c1d15"/>
    <path id="Trazado_435" data-name="Trazado 435" d="M6.25,12A5.75,5.75,0,1,1,12,17.75,5.75,5.75,0,0,1,6.25,12ZM12,7.75A4.25,4.25,0,1,0,16.25,12,4.25,4.25,0,0,0,12,7.75Z" fill="#4c1d15" fill-rule="evenodd"/>
    <path id="Trazado_436" data-name="Trazado 436" d="M5.459,4.4A.75.75,0,0,0,4.4,5.459l.707.707A.75.75,0,1,0,6.166,5.106Z" fill="#4c1d15"/>
    <path id="Trazado_437" data-name="Trazado 437" d="M22.75,12a.75.75,0,0,1-.75.75H21a.75.75,0,0,1,0-1.5h1A.75.75,0,0,1,22.75,12Z" fill="#4c1d15"/>
    <path id="Trazado_438" data-name="Trazado 438" d="M19.6,5.459A.75.75,0,0,0,18.541,4.4l-.707.707a.75.75,0,0,0,1.061,1.061Z" fill="#4c1d15"/>
    <path id="Trazado_439" data-name="Trazado 439" d="M12,20.25a.75.75,0,0,1,.75.75v1a.75.75,0,0,1-1.5,0V21A.75.75,0,0,1,12,20.25Z" fill="#4c1d15"/>
    <path id="Trazado_440" data-name="Trazado 440" d="M18.894,17.834a.75.75,0,0,0-1.061,1.061l.707.707A.75.75,0,1,0,19.6,18.541Z" fill="#4c1d15"/>
    <path id="Trazado_441" data-name="Trazado 441" d="M3.75,12a.75.75,0,0,1-.75.75H2a.75.75,0,0,1,0-1.5H3A.75.75,0,0,1,3.75,12Z" fill="#4c1d15"/>
    <path id="Trazado_442" data-name="Trazado 442" d="M6.166,18.894a.75.75,0,0,0-1.061-1.061l-.707.707A.75.75,0,0,0,5.459,19.6Z" fill="#4c1d15"/>
  </g>
</svg>
