<svg xmlns="http://www.w3.org/2000/svg" width="21.634" height="23" viewBox="0 0 21.634 23">
  <g id="User" transform="translate(-4.25 -3.75)">
    <path id="Trazado_470" data-name="Trazado 470" d="M13.484,3.75a5.234,5.234,0,1,0,5.234,5.234A5.234,5.234,0,0,0,13.484,3.75Z" transform="translate(1.583 0)" fill="#4c1d15"/>
    <path id="Trazado_471" data-name="Trazado 471" d="M9.484,13.25A5.234,5.234,0,0,0,4.25,18.484v1.659a2.145,2.145,0,0,0,1.8,2.117,55.961,55.961,0,0,0,18.035,0,2.145,2.145,0,0,0,1.8-2.117V18.484A5.234,5.234,0,0,0,20.65,13.25h-.476a2.445,2.445,0,0,0-.758.121l-1.208.395a10.12,10.12,0,0,1-6.282,0l-1.208-.395a2.445,2.445,0,0,0-.758-.121Z" transform="translate(0 3.759)" fill="#4c1d15"/>
  </g>
</svg>
