<svg xmlns="http://www.w3.org/2000/svg" width="22.236" height="18.387" viewBox="0 0 22.236 18.387">
  <g id="Wallet" transform="translate(-2.075 -3.523)">
    <path id="Trazado_413" data-name="Trazado 413" d="M15.5,12.338a1.838,1.838,0,1,1,1.838,1.838A1.838,1.838,0,0,1,15.5,12.338Z" transform="translate(0.81 0.378)" fill="#4c1d15"/>
    <path id="Trazado_414" data-name="Trazado 414" d="M21.993,6.94a5.108,5.108,0,0,0-4.165-3.079l-.707-.074a48.151,48.151,0,0,0-10.737.074l-.468.056A3.992,3.992,0,0,0,2.431,7.353a40.55,40.55,0,0,0,0,10.726,3.992,3.992,0,0,0,3.485,3.436l.468.056a48.156,48.156,0,0,0,10.737.074l.707-.074a5.108,5.108,0,0,0,4.165-3.079,3,3,0,0,0,2.129-2.52,28.03,28.03,0,0,0,0-6.512A3,3,0,0,0,21.993,6.94ZM16.951,5.405a46.524,46.524,0,0,0-10.374.071l-.468.056A2.366,2.366,0,0,0,4.043,7.568a38.922,38.922,0,0,0,0,10.3A2.365,2.365,0,0,0,6.108,19.9l.468.056a46.52,46.52,0,0,0,10.374.071l.707-.074a3.478,3.478,0,0,0,2.3-1.227,29.144,29.144,0,0,1-4.909-.128A3.007,3.007,0,0,1,12.4,15.972a28.03,28.03,0,0,1,0-6.512,3.007,3.007,0,0,1,2.652-2.626,29.134,29.134,0,0,1,4.909-.128,3.478,3.478,0,0,0-2.3-1.227Zm3.78,2.989,0,.012.007.042.215-.033.334.035a1.38,1.38,0,0,1,1.217,1.2,26.4,26.4,0,0,1,0,6.134,1.38,1.38,0,0,1-1.217,1.2l-.334.035-.215-.034-.007.042,0,.012a27.505,27.505,0,0,1-5.5-.056,1.38,1.38,0,0,1-1.217-1.2,26.4,26.4,0,0,1,0-6.134,1.38,1.38,0,0,1,1.217-1.2A27.515,27.515,0,0,1,20.731,8.394Z" transform="translate(0 0)" fill="#4c1d15" fill-rule="evenodd"/>
  </g>
</svg>
